<svg width="148" height="57" viewBox="0 0 148 57" fill="none" xmlns="http://www.w3.org/2000/svg">
<g opacity="0.6">
<path d="M32.9131 19.7368H37.4124V14.363C37.4124 13.7042 37.6276 13.1456 38.1025 12.6864C38.3236 12.4641 38.5867 12.2877 38.8766 12.1673C39.1665 12.0469 39.4774 11.9849 39.7914 11.9849C40.1054 11.9849 40.4164 12.0469 40.7062 12.1673C40.9961 12.2877 41.2592 12.4641 41.4803 12.6864C41.7086 12.9014 41.8892 13.1616 42.0105 13.4504C42.1318 13.7391 42.1911 14.05 42.1847 14.363V18.0619H43.9955V19.1081H41.6663C41.526 19.1057 41.3922 19.049 41.2931 18.9501C41.194 18.8512 41.1374 18.7177 41.1353 18.5779V14.363C41.1113 14.0258 40.9601 13.7103 40.712 13.4799C40.464 13.2495 40.1376 13.1214 39.7985 13.1214C39.4595 13.1214 39.1331 13.2495 38.8851 13.4799C38.637 13.7103 38.4858 14.0258 38.4618 14.363V20.267C38.459 20.4054 38.4016 20.5371 38.302 20.6337C38.2025 20.7303 38.0689 20.7839 37.93 20.783H32.8846C32.0513 20.783 31.3327 20.4816 30.7145 19.8804C30.4212 19.596 30.1895 19.2548 30.0337 18.8777C29.8778 18.5005 29.8011 18.0956 29.8083 17.6878C29.8105 17.1031 29.9722 16.5299 30.2761 16.0298C30.58 15.5297 31.0148 15.1215 31.5337 14.8489L31.8352 14.6911C31.8616 14.6799 31.8903 14.6751 31.9189 14.6769C31.9544 14.675 31.9896 14.6835 32.0202 14.7013C32.0509 14.7191 32.0757 14.7454 32.0915 14.7771L32.393 15.3791C32.4078 15.4108 32.4177 15.4446 32.4223 15.4793C32.4232 15.5126 32.4142 15.5454 32.3963 15.5736C32.3784 15.6017 32.3524 15.6238 32.3218 15.6371L32.0194 15.7949C31.6717 15.9753 31.3796 16.2466 31.1746 16.5797C30.9695 16.9129 30.8591 17.2953 30.8553 17.6861C30.8596 18.2288 31.0779 18.748 31.4629 19.1316C31.8479 19.5153 32.3688 19.7326 32.9131 19.7368ZM34.3076 22.3452V23.1902C34.3076 23.3196 34.2507 23.3764 34.1208 23.3764H33.4005C33.2707 23.3764 33.2138 23.3196 33.2138 23.1902V22.3452C33.2138 22.2158 33.2707 22.144 33.4005 22.144H34.1192C34.2507 22.144 34.3076 22.2158 34.3076 22.3452ZM36.2197 22.3452V23.1902C36.2197 23.3196 36.1619 23.3764 36.0329 23.3764H35.3269C35.1979 23.3764 35.1259 23.3196 35.1259 23.1902V22.3452C35.1227 22.3181 35.1257 22.2906 35.1346 22.2648C35.1436 22.239 35.1583 22.2155 35.1776 22.1962C35.1969 22.1768 35.2204 22.1621 35.2463 22.153C35.2721 22.144 35.2997 22.1409 35.3269 22.144H36.0321C36.1644 22.144 36.2197 22.2158 36.2197 22.3452Z" fill="white"/>
<path d="M46.4188 17.2741V12.4597C46.4156 12.4326 46.4186 12.4051 46.4275 12.3794C46.4365 12.3536 46.4512 12.3302 46.4705 12.3109C46.4899 12.2916 46.5134 12.2769 46.5392 12.268C46.5651 12.259 46.5926 12.2561 46.6198 12.2593H47.2806C47.3078 12.2561 47.3354 12.259 47.3612 12.268C47.3871 12.2769 47.4106 12.2916 47.4299 12.3109C47.4493 12.3302 47.464 12.3536 47.473 12.3794C47.4819 12.4051 47.4849 12.4326 47.4817 12.4597V17.4745C47.4752 17.5389 47.4821 17.604 47.502 17.6656C47.5219 17.7272 47.5543 17.7841 47.5972 17.8327C47.7405 17.9763 48.0286 18.0623 48.4457 18.0623H49.1207V19.1085H48.6316C47.9281 19.1085 47.3962 18.9215 47.0512 18.5783C47.0369 18.5633 47.0218 18.5633 47.0218 18.5499C47.0129 18.5763 46.9983 18.6005 46.9791 18.6209C46.6483 18.9549 46.2027 19.1085 45.6391 19.1085H43.4866V18.064H45.6709C46.1885 18.064 46.4188 17.8043 46.4188 17.2741ZM46.4037 10.3823V9.5365C46.4037 9.40708 46.4615 9.33611 46.5905 9.33611H47.2957C47.3229 9.33305 47.3503 9.33613 47.3761 9.34512C47.4019 9.35411 47.4253 9.36877 47.4446 9.38803C47.464 9.40728 47.4787 9.43063 47.4877 9.45634C47.4967 9.48204 47.4998 9.50944 47.4967 9.5365V10.3823C47.4967 10.5101 47.4247 10.5677 47.2957 10.5677H46.5905C46.4649 10.5677 46.4037 10.5101 46.4037 10.3823Z" fill="white"/>
<path d="M56.2853 19.1057H48.7683V18.0612H51.0247V8.94589C51.0232 8.91796 51.028 8.89007 51.0385 8.86415C51.049 8.83823 51.0651 8.81491 51.0856 8.79583C51.1061 8.77674 51.1305 8.76235 51.1572 8.75366C51.1838 8.74496 51.212 8.74218 51.2399 8.7455H51.9016C52.0305 8.7455 52.0883 8.8173 52.0883 8.94589V13.9757C53.5122 12.6573 54.7475 11.9843 55.7819 11.9843C57.6505 11.9843 58.7292 13.3737 58.7292 15.2941V16.6701C58.7292 18.1881 57.8087 19.1057 56.2853 19.1057ZM57.6798 16.6701V15.2941C57.6888 14.8326 57.5902 14.3752 57.3917 13.9582C57.0759 13.342 56.5298 13.0272 55.7819 13.0272C55.2936 13.0272 54.6931 13.2702 53.9569 13.7285C53.244 14.1731 52.6122 14.7353 52.0883 15.391V18.0612H56.2853C57.2484 18.0612 57.6798 17.6295 57.6798 16.6701Z" fill="white"/>
<path d="M65.8361 19.2785V19.1065H63.867C63.061 19.1076 62.2875 18.7899 61.7163 18.2231C61.145 17.6562 60.8227 16.8866 60.82 16.0831V15.0085C60.8152 14.6109 60.8918 14.2164 61.0452 13.8493C61.1985 13.4822 61.4255 13.1502 61.712 12.8735C61.9923 12.5876 62.3279 12.3614 62.6984 12.2087C63.069 12.0559 63.4669 11.9799 63.8679 11.9851C64.6714 11.9878 65.4412 12.3071 66.0094 12.8736C66.5776 13.44 66.898 14.2075 66.9006 15.0085V18.062H69.0715V19.1082H66.8998V19.2802C66.8998 20.0392 66.6125 20.6996 66.0522 21.2574C65.7962 21.5237 65.4881 21.7349 65.1469 21.8778C64.8058 22.0207 64.4389 22.0923 64.0689 22.0881H62.573C62.5477 22.0913 62.5221 22.0886 62.498 22.0803C62.4739 22.0721 62.4521 22.0584 62.434 22.0405C62.416 22.0225 62.4024 22.0007 62.3941 21.9767C62.3858 21.9527 62.3831 21.9271 62.3862 21.902V21.229C62.3831 21.2038 62.3858 21.1782 62.3941 21.1542C62.4024 21.1302 62.416 21.1084 62.434 21.0904C62.4521 21.0725 62.4739 21.0589 62.498 21.0506C62.5221 21.0423 62.5477 21.0397 62.573 21.0428H64.0689C64.5349 21.033 64.9791 20.8438 65.3085 20.515C65.6378 20.1862 65.8269 19.7431 65.8361 19.2785ZM63.867 18.062H65.8361V15.0085C65.8361 14.4859 65.6278 13.9847 65.2572 13.6152C64.8865 13.2456 64.3837 13.038 63.8595 13.038C63.3353 13.038 62.8325 13.2456 62.4618 13.6152C62.0911 13.9847 61.8829 14.4859 61.8829 15.0085V16.0831C61.8894 16.6058 62.1005 17.1052 62.4712 17.4749C62.8419 17.8446 63.3427 18.0553 63.867 18.062Z" fill="white"/>
<path d="M71.0097 17.289V8.96357C71.0097 8.83499 71.0667 8.76318 71.1965 8.76318H71.8716C72.0014 8.76318 72.0583 8.83499 72.0583 8.96357V17.289C72.0583 18.407 71.3397 19.1092 70.2333 19.1092H68.5658V18.0647H70.2476C70.7794 18.0488 71.0097 17.805 71.0097 17.289Z" fill="white"/>
<path d="M75.2452 19.1092H74.5559C74.4261 19.1092 74.3683 19.0516 74.3683 18.9222V8.94938C74.3683 8.8208 74.4261 8.76318 74.5559 8.76318H75.2452C75.3599 8.76318 75.4177 8.8208 75.4177 8.94938V18.9222C75.4177 19.0516 75.3624 19.1092 75.2452 19.1092Z" fill="white"/>
<path d="M81.9871 19.6505V12.4698C81.9871 12.3412 82.0449 12.2694 82.1748 12.2694H82.8507C82.8778 12.2664 82.9053 12.2694 82.9311 12.2784C82.9569 12.2874 82.9803 12.3021 82.9996 12.3213C83.0189 12.3406 83.0336 12.3639 83.0426 12.3897C83.0516 12.4154 83.0547 12.4428 83.0517 12.4698V18.0641H85.2485V19.1103H83.0517V19.6505C83.0517 21.1693 82.117 22.0861 80.5935 22.0861H79.8749C79.7451 22.0861 79.6873 22.0293 79.6873 21.8999V21.2269C79.6873 21.0975 79.7451 21.0407 79.8749 21.0407H80.5935C81.5567 21.0432 81.9871 20.6132 81.9871 19.6505ZM81.9871 10.3824V9.5366C81.9871 9.40718 82.0449 9.33621 82.1748 9.33621H82.8783C82.9055 9.33301 82.9331 9.33599 82.959 9.34492C82.9849 9.35384 83.0084 9.36849 83.0278 9.38776C83.0472 9.40703 83.062 9.43043 83.0711 9.4562C83.0801 9.48198 83.0832 9.50946 83.0801 9.5366V10.3824C83.0801 10.5102 83.0081 10.5678 82.8783 10.5678H82.1748C82.0449 10.5678 81.9871 10.5102 81.9871 10.3824Z" fill="white"/>
<path d="M90.0364 9.30713H91.2291C91.3589 9.30713 91.4167 9.36474 91.4167 9.49332V10.1671C91.4167 10.2957 91.3589 10.3533 91.2291 10.3533H90.0364C88.5423 10.3533 87.7081 11.1415 87.5498 12.6912H90.2374C91.1587 12.6912 91.9201 12.9926 92.5231 13.6097C93.1261 14.2267 93.4142 14.9991 93.4142 15.9309V17.2919C93.4142 18.4099 92.7107 19.1121 91.5884 19.1121H84.5321V18.0642H91.575C92.106 18.0642 92.3648 17.8212 92.3648 17.2902V15.9292C92.3648 14.6392 91.5172 13.7366 90.2374 13.7366H87.0037C86.8647 13.7377 86.731 13.6842 86.6314 13.5876C86.5318 13.4909 86.4745 13.3591 86.4719 13.2206C86.4719 10.8685 87.7223 9.30713 90.0364 9.30713Z" fill="white"/>
<path d="M96.4116 19.6508V12.4701C96.4085 12.443 96.4116 12.4156 96.4206 12.3899C96.4296 12.3642 96.4443 12.3409 96.4636 12.3216C96.483 12.3024 96.5064 12.2877 96.5322 12.2787C96.5579 12.2697 96.5854 12.2666 96.6126 12.2697H97.2742C97.3013 12.2669 97.3286 12.2702 97.3542 12.2793C97.3798 12.2884 97.403 12.3031 97.4222 12.3223C97.4414 12.3415 97.456 12.3648 97.4651 12.3903C97.4741 12.4159 97.4773 12.4431 97.4744 12.4701V18.0643H99.6587V19.1105H97.4744V19.6508C97.4744 21.1696 96.5397 22.0863 95.0162 22.0863H94.2968C94.1678 22.0863 94.11 22.0296 94.11 21.9001V21.2272C94.11 21.0977 94.1678 21.041 94.2968 21.041H95.0162C95.9802 21.0435 96.4116 20.6135 96.4116 19.6508Z" fill="white"/>
<path d="M108.096 18.0646H109.174V19.1108H108.297C107.55 19.1108 106.931 18.8103 106.573 18.2801C106.297 18.5483 105.971 18.7597 105.614 18.9023C105.256 19.0448 104.874 19.1157 104.488 19.1108H98.9547V18.0646H101.456V15.0112C101.451 14.6114 101.527 14.2147 101.68 13.8452C101.833 13.4756 102.06 13.1409 102.347 12.8612C102.627 12.5792 102.961 12.3553 103.328 12.2026C103.696 12.0498 104.09 11.9712 104.488 11.9712C104.887 11.9712 105.281 12.0498 105.648 12.2026C106.016 12.3553 106.35 12.5792 106.63 12.8612C106.917 13.1404 107.145 13.475 107.299 13.8445C107.453 14.2141 107.53 14.611 107.525 15.0112V16.0858C107.527 16.5749 107.409 17.057 107.181 17.4902C107.274 17.8768 107.622 18.0646 108.096 18.0646ZM102.505 15.0129V18.0646H104.488C105.014 18.0635 105.518 17.8549 105.89 17.4843C106.261 17.1138 106.471 16.6115 106.472 16.0875V15.0112C106.472 14.4868 106.263 13.9839 105.891 13.6131C105.519 13.2423 105.014 13.034 104.488 13.034C103.962 13.034 103.458 13.2423 103.086 13.6131C102.714 13.9839 102.505 14.4868 102.505 15.0112V15.0129Z" fill="white"/>
<path d="M111.255 17.289V8.96357C111.255 8.83499 111.313 8.76318 111.442 8.76318H112.117C112.247 8.76318 112.304 8.83499 112.304 8.96357V17.289C112.304 18.407 111.585 19.1092 110.479 19.1092H108.812V18.0647H110.493C111.025 18.0488 111.255 17.805 111.255 17.289Z" fill="white"/>
<path d="M115.491 19.1092H114.802C114.672 19.1092 114.614 19.0516 114.614 18.9222V8.94938C114.614 8.8208 114.672 8.76318 114.802 8.76318H115.491C115.607 8.76318 115.664 8.8208 115.664 8.94938V18.9222C115.664 19.0516 115.607 19.1092 115.491 19.1092Z" fill="white"/>
<path d="M5.80357 36.1885H10.3782V30.7971C10.3692 30.4833 10.4271 30.1711 10.5481 29.8812C10.6691 29.5913 10.8504 29.3303 11.0801 29.1155C11.5371 28.6646 12.1541 28.4116 12.7971 28.4116C13.44 28.4116 14.057 28.6646 14.514 29.1155C14.7459 29.3294 14.9297 29.5899 15.0532 29.8797C15.1768 30.1696 15.2374 30.4823 15.2309 30.7971V34.5069H17.0735V35.5564H14.7041C14.5624 35.5551 14.4267 35.4989 14.3259 35.3996C14.2251 35.3003 14.167 35.1658 14.1639 35.0245V30.7971C14.1639 30.4377 14.0207 30.093 13.7658 29.8389C13.5109 29.5848 13.1651 29.442 12.8046 29.442C12.4441 29.442 12.0983 29.5848 11.8434 29.8389C11.5885 30.093 11.4453 30.4377 11.4453 30.7971V36.7204C11.4415 36.8602 11.3826 36.993 11.2814 37.0899C11.1801 37.1868 11.0446 37.2401 10.9042 37.238H5.77426C4.92415 37.238 4.19633 36.9333 3.56733 36.3329C3.27 36.0493 3.03469 35.7074 2.87615 35.3288C2.71761 34.9502 2.63927 34.543 2.64603 34.1328C2.65083 33.5435 2.81725 32.9668 3.12728 32.4651C3.4373 31.9634 3.87912 31.5558 4.40487 31.2864L4.71141 31.1278C4.73789 31.1168 4.76653 31.1119 4.79517 31.1136C4.83114 31.1117 4.86687 31.1203 4.89808 31.1382C4.92929 31.1561 4.95463 31.1827 4.97105 31.2146L5.27843 31.8183C5.29277 31.8502 5.30263 31.8839 5.30774 31.9185C5.30872 31.9521 5.29949 31.9853 5.28126 32.0136C5.26303 32.0419 5.23664 32.064 5.20556 32.0771L4.89819 32.2349C4.54618 32.4138 4.24985 32.6851 4.04114 33.0196C3.83244 33.354 3.71929 33.739 3.7139 34.1328C3.71306 35.2542 4.66367 36.1885 5.80357 36.1885ZM7.22069 38.8053V39.6536C7.22069 39.783 7.16206 39.8398 7.03057 39.8398H6.30107C6.16874 39.8398 6.11011 39.783 6.11011 39.6536V38.8053C6.11011 38.6758 6.16874 38.604 6.30107 38.604H7.03057C7.16206 38.6032 7.22069 38.6758 7.22069 38.8053ZM9.16463 38.8053V39.6536C9.16463 39.783 9.10684 39.8398 8.97534 39.8398H8.25841C8.12691 39.8398 8.05405 39.783 8.05405 39.6536V38.8053C8.05094 38.7778 8.0541 38.75 8.06329 38.724C8.07249 38.698 8.08748 38.6743 8.10714 38.6549C8.12681 38.6354 8.15063 38.6207 8.17683 38.6117C8.20302 38.6028 8.23092 38.5999 8.25841 38.6032H8.97534C9.10684 38.6032 9.16463 38.6758 9.16463 38.8053Z" fill="white"/>
<path d="M19.5385 33.7294V28.8866C19.5356 28.8592 19.5388 28.8315 19.5481 28.8056C19.5573 28.7797 19.5724 28.7562 19.592 28.7368C19.6116 28.7175 19.6354 28.7028 19.6615 28.6939C19.6877 28.685 19.7155 28.6821 19.7429 28.6854H20.4129C20.4403 28.6821 20.4682 28.685 20.4943 28.6939C20.5204 28.7028 20.5442 28.7175 20.5638 28.7368C20.5835 28.7562 20.5985 28.7797 20.6077 28.8056C20.617 28.8315 20.6203 28.8592 20.6173 28.8866V33.7294C20.6173 34.8516 19.8719 35.5563 18.7462 35.5563H16.5569V34.5067H18.778C19.3049 34.4925 19.5385 34.2612 19.5385 33.7294ZM20.6349 25.9525V26.8009C20.6349 26.9295 20.562 26.9879 20.4305 26.9879H19.7136C19.5821 26.9879 19.5243 26.9295 19.5243 26.8009V25.9525C19.5243 25.8231 19.5821 25.7513 19.7136 25.7513H20.4305C20.4579 25.748 20.4857 25.7509 20.5119 25.7598C20.538 25.7687 20.5618 25.7834 20.5814 25.8028C20.6011 25.8221 20.6161 25.8456 20.6253 25.8716C20.6346 25.8975 20.6379 25.9252 20.6349 25.9525Z" fill="white"/>
<path d="M27.566 35.7288V35.5568H25.5643C25.1597 35.5622 24.7583 35.486 24.3841 35.3328C24.0098 35.1795 23.6706 34.9524 23.3866 34.6651C23.0961 34.3893 22.8657 34.0568 22.7098 33.6883C22.5539 33.3198 22.4758 32.9233 22.4804 32.5234V31.4446C22.4757 31.0447 22.5537 30.6481 22.7096 30.2796C22.8656 29.9111 23.096 29.5787 23.3866 29.3029C23.9667 28.7319 24.749 28.4116 25.5643 28.4116C26.3795 28.4116 27.1619 28.7319 27.7419 29.3029C28.0323 29.5788 28.2627 29.9113 28.4186 30.2797C28.5745 30.6482 28.6526 31.0447 28.6481 31.4446V35.7288C28.6516 36.1 28.5781 36.4679 28.4323 36.8094C28.2864 37.151 28.0713 37.4588 27.8005 37.7135C27.5358 37.9819 27.2195 38.1941 26.8704 38.3376C26.5214 38.4811 26.147 38.5528 25.7695 38.5485H24.2485C24.117 38.5485 24.0584 38.4909 24.0584 38.3614V37.6851C24.0584 37.5557 24.117 37.4981 24.2485 37.4981H25.7695C26.7335 37.4973 27.566 36.6773 27.566 35.7288ZM25.5643 34.5073H27.566V31.4446C27.5605 30.9182 27.3474 30.4151 26.9729 30.0441C26.5983 29.673 26.0923 29.4638 25.5643 29.4616C24.4688 29.4616 23.5475 30.3525 23.5475 31.4446V32.5234C23.5475 33.6013 24.4688 34.5073 25.5643 34.5073Z" fill="white"/>
<path d="M31.6813 36.1035V28.9003C31.6785 28.8729 31.6819 28.8452 31.6912 28.8192C31.7006 28.7933 31.7157 28.7698 31.7354 28.7505C31.7551 28.7312 31.7789 28.7165 31.8051 28.7076C31.8312 28.6987 31.8591 28.6958 31.8865 28.6991H32.5565C32.5839 28.6959 32.6117 28.6989 32.6377 28.7079C32.6638 28.7169 32.6875 28.7315 32.7071 28.7509C32.7267 28.7702 32.7417 28.7936 32.751 28.8195C32.7603 28.8453 32.7637 28.8729 32.7609 28.9003V34.5079H34.9821V35.5574H32.7634V36.1035C32.7634 37.6273 31.8136 38.5474 30.2642 38.5474H29.533C29.4015 38.5474 29.3429 38.4898 29.3429 38.3604V37.6857C29.3429 37.5563 29.4015 37.4987 29.533 37.4987H30.2642C31.2433 37.4979 31.6813 37.0662 31.6813 36.1035Z" fill="white"/>
<path d="M37.5728 33.716V28.8858C37.5694 28.8595 37.5719 28.8329 37.5801 28.8077C37.5882 28.7826 37.6019 28.7595 37.6201 28.7403C37.6383 28.721 37.6605 28.706 37.6852 28.6964C37.71 28.6868 37.7365 28.6827 37.763 28.6845H38.4506C38.5821 28.6845 38.6399 28.7555 38.6399 28.8858V33.9172C38.6358 33.9829 38.6454 34.0487 38.668 34.1104C38.6906 34.1722 38.7258 34.2287 38.7714 34.2763C38.9179 34.4199 39.2102 34.5067 39.634 34.5067H40.3208V35.5563H39.8242C39.1072 35.5563 38.5528 35.3684 38.2018 35.0244C38.2018 35.0094 38.1868 35.0094 38.1868 34.9952L38.1281 35.067C37.7931 35.401 37.3542 35.5563 36.7839 35.5563H34.2712V34.5067H36.814C37.3425 34.5067 37.5728 34.2337 37.5728 33.716ZM36.5678 26.8009V25.9525C36.5648 25.9252 36.5681 25.8975 36.5773 25.8716C36.5866 25.8456 36.6016 25.8221 36.6212 25.8028C36.6409 25.7834 36.6647 25.7687 36.6908 25.7598C36.7169 25.7509 36.7447 25.748 36.7721 25.7513H37.5033C37.6348 25.7513 37.6934 25.8231 37.6934 25.9525V26.8009C37.6934 26.9295 37.6348 26.9879 37.5033 26.9879H36.7721C36.6373 26.9879 36.5644 26.9295 36.5644 26.8009H36.5678ZM38.5268 26.8009V25.9525C38.5268 25.8231 38.5854 25.7513 38.7169 25.7513H39.433C39.4604 25.748 39.4882 25.7509 39.5144 25.7598C39.5405 25.7687 39.5643 25.7834 39.5839 25.8028C39.6036 25.8221 39.6186 25.8456 39.6278 25.8716C39.6371 25.8975 39.6404 25.9252 39.6374 25.9525V26.8009C39.6374 26.9295 39.5645 26.9879 39.433 26.9879H38.7169C38.5821 26.9879 38.5234 26.9295 38.5234 26.8009H38.5268Z" fill="white"/>
<path d="M45.5495 25.7214H46.7639C46.7894 25.7178 46.8155 25.72 46.84 25.728C46.8645 25.736 46.8868 25.7496 46.9052 25.7676C46.9236 25.7856 46.9376 25.8076 46.9461 25.8319C46.9545 25.8562 46.9573 25.8821 46.954 25.9076V26.584C46.954 26.7134 46.8954 26.7852 46.7639 26.7852H45.5495C44.0302 26.7852 43.1817 27.5617 43.0218 29.1139H45.7404C46.6751 29.1139 47.4498 29.4153 48.0638 30.0323C48.6777 30.6494 48.9851 31.4267 48.9851 32.3611V33.9141C48.9851 34.0861 49.0295 34.2013 49.1174 34.2731C49.2631 34.4167 49.5412 34.5036 49.9792 34.5036H50.7422V35.5531H50.1559C49.4398 35.5531 48.913 35.3652 48.5646 35.0212L48.5353 34.992C48.2145 35.3519 47.7463 35.5531 47.1324 35.5531H39.953V34.5052H47.1148C47.655 34.5052 47.9189 34.2606 47.9189 33.7145V32.3627C47.9189 31.0685 47.0562 30.1634 45.7413 30.1634H42.4673C42.3967 30.1642 42.3266 30.151 42.2611 30.1247C42.1956 30.0983 42.136 30.0593 42.0857 30.0098C42.0354 29.9604 41.9954 29.9015 41.968 29.8366C41.9407 29.7717 41.9265 29.702 41.9263 29.6316C41.9263 27.2736 43.2119 25.7214 45.5495 25.7214Z" fill="white"/>
<path d="M52.7775 33.7286V25.379C52.7775 25.2495 52.8361 25.1777 52.9676 25.1777H53.6544C53.7859 25.1777 53.8445 25.2495 53.8445 25.379V33.7286C53.8445 34.8508 53.1133 35.5555 51.9877 35.5555H50.2933V34.5059H52.0028C52.5438 34.4917 52.7775 34.2471 52.7775 33.7286Z" fill="white"/>
<path d="M61.6393 33.1121V25.377C61.6393 25.2476 61.6979 25.1758 61.8303 25.1758H62.5162C62.6477 25.1758 62.7063 25.2476 62.7063 25.377V33.1121C62.7063 34.6493 61.7708 35.556 60.2222 35.556H55.8954C55.764 35.556 55.7053 35.4842 55.7053 35.3548V34.6935C55.7053 34.5641 55.764 34.5065 55.8954 34.5065H60.2222C61.2013 34.5065 61.6393 34.0748 61.6393 33.1121ZM58.2196 37.6977V38.546H59.7105C59.7984 38.546 59.857 38.5886 59.857 38.6754V38.9769C59.8581 38.9963 59.8551 39.0157 59.8481 39.0338C59.8411 39.052 59.8303 39.0684 59.8165 39.0821C59.8026 39.0957 59.786 39.1063 59.7677 39.1131C59.7494 39.1198 59.7299 39.1226 59.7105 39.1213H57.2255C57.1417 39.1213 57.094 39.0637 57.094 38.9769V38.6754C57.0914 38.6577 57.093 38.6396 57.0987 38.6226C57.1045 38.6056 57.1141 38.5902 57.1269 38.5776C57.1397 38.565 57.1553 38.5556 57.1724 38.5501C57.1895 38.5446 57.2077 38.5432 57.2255 38.546H57.635V37.6977C57.639 37.4104 57.7562 37.1361 57.9614 36.9343C58.1665 36.7324 58.4431 36.6191 58.7314 36.6189C59.213 36.6189 59.5488 36.8494 59.7364 37.281L59.8093 37.4247C59.8212 37.4414 59.8266 37.4619 59.8244 37.4823C59.8244 37.5391 59.7808 37.5658 59.7222 37.5967L59.4433 37.7127C59.4203 37.7225 59.3954 37.7271 59.3704 37.7261C59.3126 37.7261 59.2867 37.6977 59.254 37.6426L59.2096 37.5132C59.173 37.4166 59.1067 37.334 59.0203 37.2771C58.9338 37.2203 58.8315 37.1922 58.728 37.1967C58.5947 37.1984 58.4673 37.2516 58.3725 37.345C58.2777 37.4384 58.2229 37.5648 58.2196 37.6977ZM57.9416 33.1263V26.5301C57.9416 26.4007 58.0002 26.3289 58.1317 26.3289H58.8193C58.9508 26.3289 59.0086 26.4007 59.0086 26.5301V33.1263C59.0086 33.2557 58.9508 33.3133 58.8193 33.3133H58.1317C58.0002 33.3133 57.9416 33.259 57.9416 33.1263Z" fill="white"/>
<path d="M65.9428 35.556H65.2409C65.1094 35.556 65.0508 35.4976 65.0508 35.3682V25.3628C65.0508 25.2334 65.1094 25.1758 65.2409 25.1758H65.9428C66.06 25.1758 66.1178 25.2334 66.1178 25.3628V35.3682C66.1178 35.4976 66.06 35.556 65.9428 35.556Z" fill="white"/>
<path d="M80.9427 34.508H82.0976V35.5575H81.1479C80.3731 35.5575 79.7592 35.2553 79.394 34.7226C78.8249 35.2677 78.0634 35.5676 77.2742 35.5575H73.6644C73.4077 35.5566 73.161 35.657 72.9782 35.8367C72.7954 36.0165 72.6913 36.261 72.6887 36.5169V38.4574C72.6887 38.5868 72.6158 38.6444 72.4843 38.6444H71.7967C71.6652 38.6444 71.6066 38.5868 71.6066 38.4574V36.5169C71.6066 35.4106 72.5421 34.4905 73.6678 34.4905H74.1937V31.4312C74.1892 31.0312 74.2673 30.6345 74.4232 30.2659C74.5791 29.8973 74.8095 29.5646 75.1 29.2886C75.384 29.0015 75.7233 28.7746 76.0975 28.6215C76.4717 28.4684 76.8731 28.3923 77.2776 28.3977C77.6799 28.3922 78.0792 28.4683 78.4511 28.6214C78.8231 28.7746 79.1598 29.0016 79.4409 29.2886C79.7315 29.5645 79.962 29.8972 80.1179 30.2658C80.2738 30.6344 80.3519 31.0311 80.3472 31.4312V32.5241C80.349 33.0153 80.2287 33.4992 79.9971 33.9327C80.0959 34.3068 80.4778 34.508 80.9427 34.508ZM75.2574 31.4312V34.4938H77.2742C77.5364 34.4966 77.7966 34.4478 78.0399 34.3503C78.2832 34.2528 78.5049 34.1085 78.6923 33.9256C78.8796 33.7427 79.029 33.5248 79.1319 33.2843C79.2348 33.0438 79.2891 32.7855 79.2919 32.5241V31.4312C79.2919 30.3532 78.3706 29.4623 77.2742 29.4623C76.1779 29.4623 75.2574 30.3532 75.2574 31.4312Z" fill="white"/>
<path d="M84.6311 33.7164V28.8861C84.6281 28.8588 84.6314 28.8311 84.6406 28.8052C84.6499 28.7792 84.6649 28.7557 84.6845 28.7364C84.7042 28.717 84.7279 28.7023 84.7541 28.6934C84.7802 28.6845 84.808 28.6816 84.8354 28.6849H85.5055C85.5329 28.6816 85.5607 28.6845 85.5868 28.6934C85.6129 28.7023 85.6367 28.717 85.6564 28.7364C85.676 28.7557 85.691 28.7792 85.7003 28.8052C85.7095 28.8311 85.7128 28.8588 85.7098 28.8861V33.9176C85.7033 33.9823 85.7104 34.0476 85.7306 34.1094C85.7507 34.1712 85.7836 34.2282 85.8271 34.2766C85.9728 34.4203 86.2659 34.5071 86.6897 34.5071H87.3765V35.5566H86.879C86.1629 35.5566 85.6227 35.3688 85.2718 35.0248C85.2575 35.0097 85.2425 35.0097 85.2425 34.9956C85.2334 35.0224 85.2185 35.0469 85.1989 35.0674C84.8639 35.4013 84.4091 35.5566 83.8388 35.5566H81.6494V34.5071H83.8706C84.3974 34.5071 84.6311 34.2483 84.6311 33.7164ZM84.0724 37.1239V37.9588C84.0724 38.0882 84.013 38.1601 83.8823 38.1601H83.152C83.0205 38.1601 82.961 38.0882 82.961 37.9588V37.1239C82.961 36.9944 83.0205 36.9226 83.152 36.9226H83.8823C84.0163 36.9226 84.0724 36.9944 84.0724 37.1239ZM86.0306 37.1239V37.9588C86.0336 37.9862 86.0303 38.0139 86.0211 38.0398C86.0118 38.0658 85.9968 38.0893 85.9771 38.1086C85.9575 38.128 85.9337 38.1426 85.9076 38.1515C85.8815 38.1604 85.8537 38.1634 85.8262 38.1601H85.1093C85.0819 38.1634 85.0541 38.1604 85.028 38.1515C85.0018 38.1426 84.978 38.128 84.9584 38.1086C84.9388 38.0893 84.9237 38.0658 84.9145 38.0398C84.9052 38.0139 84.902 37.9862 84.9049 37.9588V37.1239C84.902 37.0965 84.9052 37.0688 84.9145 37.0429C84.9237 37.0169 84.9388 36.9934 84.9584 36.9741C84.978 36.9547 85.0018 36.9401 85.028 36.9312C85.0541 36.9223 85.0819 36.9193 85.1093 36.9226H85.8313C85.8585 36.9196 85.8862 36.9227 85.9121 36.9318C85.938 36.9408 85.9616 36.9555 85.981 36.9748C86.0005 36.9941 86.0153 37.0175 86.0245 37.0433C86.0336 37.0691 86.0369 37.0967 86.0339 37.1239H86.0306Z" fill="white"/>
<path d="M89.5686 33.7158V25.377C89.5686 25.2476 89.6272 25.1758 89.7587 25.1758H90.4455C90.577 25.1758 90.6356 25.2476 90.6356 25.377V33.917C90.6356 34.089 90.6791 34.2042 90.7671 34.276C90.9128 34.4196 91.2051 34.5065 91.6298 34.5065H92.3743V35.556H91.8048C91.0594 35.556 90.5485 35.3548 90.1825 34.9949C90.1665 35.0216 90.1468 35.0457 90.1239 35.0667C89.8022 35.4007 89.3491 35.556 88.7838 35.556H87.0149V34.5065H88.798C89.3198 34.5065 89.5686 34.2476 89.5686 33.7158Z" fill="white"/>
<path d="M101.945 35.5561H91.934V34.5066H95.3243L93.8921 31.5007C93.8636 31.4275 93.8488 31.3497 93.8486 31.2711V31.1985C93.9508 30.4804 94.3009 29.8475 94.9156 29.3014C95.5731 28.6969 96.3034 28.3955 97.1225 28.3955C97.9383 28.3954 98.7249 28.6978 99.3295 29.2438C99.9719 29.8041 100.324 30.4654 100.396 31.2277V31.2853C100.396 31.3592 100.381 31.4323 100.353 31.5007L98.9199 34.5066H101.945V35.5561ZM95.7037 30.0028C95.3101 30.3485 95.0471 30.7543 94.9449 31.196L96.5086 34.5032H97.7507L99.3135 31.1851C99.2398 30.7117 98.9911 30.3084 98.5531 29.9778C98.1519 29.6421 97.6445 29.459 97.1209 29.4609C96.6108 29.4609 96.1435 29.6471 95.7037 30.0028Z" fill="white"/>
<path d="M104.81 33.716V28.8858C104.807 28.8596 104.809 28.833 104.817 28.8079C104.826 28.7829 104.839 28.7599 104.857 28.7406C104.875 28.7214 104.897 28.7064 104.922 28.6967C104.947 28.687 104.973 28.6828 104.999 28.6845H105.687C105.819 28.6845 105.876 28.7555 105.876 28.8858V33.9172C105.872 33.9829 105.882 34.0487 105.905 34.1104C105.927 34.1722 105.962 34.2287 106.008 34.2763C106.154 34.4199 106.446 34.5067 106.871 34.5067H107.557V35.5563H107.061C106.344 35.5563 105.789 35.3684 105.438 35.0244C105.438 35.0094 105.423 35.0094 105.423 34.9952L105.365 35.067C105.03 35.401 104.591 35.5563 104.025 35.5563H101.512V34.5067H104.055C104.576 34.5067 104.81 34.2337 104.81 33.716ZM103.805 26.8009V25.9525C103.802 25.9252 103.806 25.8976 103.815 25.8717C103.824 25.8459 103.839 25.8224 103.859 25.8031C103.879 25.7838 103.902 25.7691 103.928 25.7602C103.954 25.7512 103.982 25.7482 104.01 25.7513H104.741C104.872 25.7513 104.931 25.8231 104.931 25.9525V26.8009C104.931 26.9295 104.872 26.9879 104.741 26.9879H104.006C103.875 26.9879 103.801 26.9295 103.801 26.8009H103.805ZM105.764 26.8009V25.9525C105.764 25.8231 105.823 25.7513 105.954 25.7513H106.67C106.698 25.748 106.726 25.7509 106.752 25.7598C106.778 25.7687 106.802 25.7834 106.821 25.8028C106.841 25.8221 106.856 25.8456 106.865 25.8716C106.874 25.8975 106.878 25.9252 106.875 25.9525V26.8009C106.875 26.9295 106.802 26.9879 106.67 26.9879H105.954C105.819 26.9879 105.76 26.9295 105.76 26.8009H105.764Z" fill="white"/>
<path d="M109.752 33.7158V25.377C109.752 25.2476 109.811 25.1758 109.942 25.1758H110.628C110.76 25.1758 110.818 25.2476 110.818 25.377V33.917C110.818 34.089 110.862 34.2042 110.95 34.276C111.096 34.4196 111.388 34.5065 111.812 34.5065H112.557V35.556H111.988C111.242 35.556 110.731 35.3548 110.365 34.9949C110.349 35.0216 110.33 35.0457 110.307 35.0667C109.985 35.4007 109.532 35.556 108.967 35.556H107.194V34.5065H108.977C109.504 34.5065 109.752 34.2476 109.752 33.7158Z" fill="white"/>
<path d="M114.597 33.7286V25.379C114.597 25.2495 114.655 25.1777 114.787 25.1777H115.474C115.605 25.1777 115.664 25.2495 115.664 25.379V33.7286C115.664 34.8508 114.933 35.5555 113.807 35.5555H112.113V34.5059H113.822C114.363 34.4917 114.597 34.2471 114.597 33.7286Z" fill="white"/>
<path d="M3.12435 43.7135C3.14361 43.8588 3.15534 45.2724 3.15534 45.5145L3.16539 49.5824H2.43254L2.42249 42.7934H3.49705L5.76763 47.0901C5.83463 47.2254 6.48875 48.4745 6.54655 48.6189H6.61355C6.59429 48.4152 6.59177 46.949 6.59177 46.7979L6.58591 42.79H7.30536L7.31541 49.5791H6.26011L3.97026 45.2515C3.90326 45.1162 3.25835 43.878 3.20056 43.7135H3.12435Z" fill="white"/>
<path d="M12.4091 45.8202V48.2032C12.4091 48.6775 12.5548 48.9964 12.9191 48.9964H13.054V49.5483C12.9703 49.5888 12.8781 49.6088 12.7851 49.6068C12.2667 49.6068 11.9593 49.3271 11.8345 48.9689H11.7968C11.5456 49.2594 11.1268 49.6769 10.244 49.6777C9.27499 49.6777 8.73645 48.9931 8.73645 48.2767C8.73645 47.1144 9.86546 46.5408 11.7173 46.5667V45.9956C11.7173 45.1339 11.3027 44.8826 10.6125 44.8834C9.92241 44.8842 9.57651 45.2725 9.42407 45.5246L8.87632 45.0896C9.05807 44.8391 9.54635 44.2263 10.6301 44.2246C11.7449 44.2229 12.4074 44.7156 12.4091 45.8202ZM11.7206 47.1562C10.4643 47.1094 9.476 47.4208 9.47768 48.2149C9.47768 48.68 9.81269 49.0574 10.4191 49.0565C10.6784 49.0506 10.9324 48.982 11.1594 48.8568C11.3863 48.7316 11.5795 48.5535 11.7223 48.3376L11.7206 47.1562Z" fill="white"/>
<path d="M14.4192 48.1605L14.4142 44.9042H13.637V44.4191L14.4142 44.273L14.6454 42.9111H15.1479V44.2963H16.5868V44.9067H15.1479L15.1529 48.1213C15.1529 48.7124 15.4519 48.9563 15.9117 48.9563C16.3305 48.9563 16.5742 48.8586 16.7082 48.7709L16.9201 49.3712C16.7183 49.4881 16.3732 49.6142 15.7476 49.615C14.8916 49.6134 14.4209 49.1583 14.4192 48.1605Z" fill="white"/>
<path d="M18.4796 42.1977C18.5535 42.1948 18.6273 42.2068 18.6964 42.233C18.7655 42.2592 18.8286 42.2991 18.8819 42.3502C18.9352 42.4013 18.9776 42.4626 19.0066 42.5305C19.0356 42.5983 19.0505 42.6713 19.0505 42.745C19.0505 42.8187 19.0356 42.8917 19.0066 42.9595C18.9776 43.0274 18.9352 43.0887 18.8819 43.1398C18.8286 43.1909 18.7655 43.2308 18.6964 43.257C18.6273 43.2832 18.5535 43.2952 18.4796 43.2923C18.3377 43.2868 18.2035 43.2267 18.1051 43.1247C18.0066 43.0226 17.9517 42.8866 17.9517 42.745C17.9517 42.6034 18.0066 42.4674 18.1051 42.3653C18.2035 42.2633 18.3377 42.2032 18.4796 42.1977ZM18.1572 44.2909H18.9051L18.9127 49.5595H18.1647L18.1572 44.2909Z" fill="white"/>
<path d="M20.3973 46.9312C20.3973 45.3047 20.997 44.1892 22.58 44.1875C24.1629 44.1858 24.7216 45.2679 24.7232 46.8761C24.7232 48.5034 24.1135 49.6381 22.5306 49.6398C20.9476 49.6415 20.3999 48.5485 20.3973 46.9312ZM22.5875 48.981C23.5926 48.981 23.9586 48.313 23.9561 46.9354C23.9561 45.5218 23.5314 44.8346 22.5239 44.8363C21.5356 44.8363 21.1629 45.5042 21.1645 46.8719C21.1712 48.288 21.59 48.9827 22.5875 48.981Z" fill="white"/>
<path d="M29.9857 49.5405H29.2369L29.2319 46.083C29.2319 45.2789 28.8366 44.8305 28.1079 44.8355C27.8157 44.8368 27.5311 44.9287 27.2937 45.0985C27.0562 45.2683 26.8777 45.5076 26.7829 45.7832L26.7888 49.5505H26.04L26.0325 44.2819H26.5978L26.7528 44.8339H26.7913C26.9773 44.6244 27.2061 44.4571 27.4624 44.3431C27.7187 44.2292 27.9965 44.1713 28.2771 44.1734C29.3223 44.1734 29.9471 44.742 29.9773 45.9143L29.9857 49.5405Z" fill="white"/>
<path d="M34.9378 45.7823V48.1653C34.9378 48.6395 35.0827 48.9593 35.4479 48.9585H35.5844V49.5104C35.5012 49.5513 35.4092 49.5714 35.3164 49.5688C34.7979 49.5688 34.4906 49.2891 34.3658 48.9309H34.3281C34.0768 49.2223 33.658 49.639 32.7753 49.6406C31.8071 49.6406 31.2677 48.9551 31.2677 48.2387C31.2677 47.0765 32.3975 46.5028 34.2494 46.5296V45.9576C34.2494 45.0959 33.8306 44.8446 33.1438 44.8454C32.457 44.8463 32.1086 45.2345 31.9553 45.4867L31.4076 45.0517C31.5902 44.8012 32.0776 44.1892 33.1622 44.1875C34.2736 44.1883 34.9361 44.681 34.9378 45.7823ZM34.2494 47.1182C32.993 47.0723 32.0047 47.3837 32.0056 48.1778C32.0056 48.6429 32.3406 49.0194 32.947 49.0186C33.2064 49.0127 33.4606 48.9443 33.6877 48.8191C33.9148 48.6939 34.1081 48.5157 34.251 48.2997L34.2494 47.1182Z" fill="white"/>
<path d="M37.568 42.1787L37.5773 48.2798C37.5773 48.7448 37.7314 48.9477 38.125 48.9477C38.2753 48.9467 38.4233 48.9098 38.5563 48.84V49.4796C38.3488 49.5615 38.127 49.6013 37.9039 49.5965C37.1853 49.5965 36.8385 49.1723 36.8377 48.4843L36.8285 42.1795L37.568 42.1787Z" fill="white"/>
<path d="M45.9631 49.1104C45.618 49.3725 45.0711 49.5863 44.3232 49.588C42.8365 49.588 42.0291 48.8257 42.0266 46.8593C42.0266 44.9514 43.0777 44.1657 44.2386 44.1641C45.4756 44.1641 46.1389 44.9748 46.1406 46.2239C46.1388 46.5284 46.1201 46.8325 46.0845 47.1349L42.7653 47.1399C42.8348 48.4374 43.3725 48.93 44.4178 48.9284C44.9362 48.9284 45.4061 48.7238 45.6264 48.5301L45.9631 49.1104ZM42.7737 46.522L45.3927 46.5178C45.4027 46.4118 45.4019 46.2765 45.4019 46.2181C45.4019 45.3171 45.0158 44.8145 44.1724 44.8153C43.4873 44.8145 42.8357 45.2512 42.7703 46.5195L42.7737 46.522Z" fill="white"/>
<path d="M48.3841 42.7251L48.3933 48.8262L51.2812 48.822V49.51L47.6261 49.515L47.6152 42.7259L48.3841 42.7251Z" fill="white"/>
<path d="M55.8859 49.0962C55.5408 49.3584 54.9939 49.5721 54.246 49.5738C52.7585 49.5738 51.952 48.8123 51.9486 46.8452C51.9486 44.9373 52.9997 44.1516 54.1614 44.1499C55.3984 44.1499 56.0618 44.9606 56.0635 46.2097C56.0613 46.5142 56.0425 46.8183 56.0073 47.1207L52.6882 47.1257C52.7568 48.4232 53.2954 48.9159 54.3406 48.9142C54.8591 48.9142 55.3289 48.7096 55.5492 48.5159L55.8859 49.0962ZM52.6965 46.5078H55.3155C55.3247 46.401 55.3247 46.2657 55.3247 46.2072C55.3247 45.3063 54.9386 44.8037 54.0944 44.8053C53.4135 44.8003 52.7619 45.237 52.6965 46.5053V46.5078Z" fill="white"/>
<path d="M60.8202 45.7472V48.1293C60.8202 48.6044 60.9659 48.9234 61.3303 48.9225H61.4643V49.4745C61.381 49.5154 61.289 49.5354 61.1963 49.5329C60.6778 49.5329 60.3704 49.2532 60.2448 48.895H60.2071C59.9559 49.1856 59.5371 49.6022 58.6543 49.6039C57.6853 49.6039 57.1467 48.9184 57.1467 48.202C57.1467 47.0397 58.2757 46.4661 60.1275 46.4928V45.9209C60.1275 45.0592 59.7088 44.8079 59.022 44.8087C58.3352 44.8095 57.9893 45.1986 57.836 45.4491L57.2891 45.0141C57.4709 44.7636 57.9591 44.1516 59.0429 44.1499C60.156 44.1499 60.8185 44.6425 60.8202 45.7472ZM60.1317 47.0831C58.8754 47.0364 57.8871 47.3478 57.8888 48.1419C57.8888 48.6069 58.2238 48.9835 58.8294 48.9827C59.0888 48.9768 59.343 48.9084 59.5701 48.7832C59.7972 48.658 59.9905 48.4797 60.1334 48.2638L60.1317 47.0831Z" fill="white"/>
<path d="M65.2716 44.9657C65.081 44.9117 64.8835 44.8861 64.6853 44.8898C64.177 44.8898 63.6493 45.0943 63.4006 45.5694L63.4064 49.4937H62.6686L62.661 44.2251H63.2272L63.3905 44.8096H63.429C63.6594 44.4322 64.1384 44.1416 64.7423 44.1416C64.9195 44.1363 65.0966 44.1523 65.27 44.1892L65.2716 44.9657Z" fill="white"/>
<path d="M70.0708 49.4822H69.3229L69.3179 46.0247C69.3179 45.2206 68.9225 44.7764 68.1939 44.7772C67.9029 44.7786 67.6196 44.8699 67.3827 45.0384C67.1459 45.2069 66.9673 45.4444 66.8714 45.7182L66.8764 49.4864H66.1285L66.1201 44.2178H66.6863L66.8404 44.7689H66.8789C67.0654 44.5598 67.2945 44.3928 67.5508 44.2789C67.8072 44.165 68.0849 44.1069 68.3656 44.1084C69.4108 44.1084 70.0356 44.6779 70.0658 45.8493L70.0708 49.4822Z" fill="white"/>
<path d="M72.1996 42.1186C72.2735 42.1157 72.3472 42.1277 72.4164 42.1539C72.4855 42.1801 72.5486 42.22 72.6019 42.2711C72.6552 42.3222 72.6976 42.3835 72.7266 42.4514C72.7556 42.5192 72.7705 42.5922 72.7705 42.6659C72.7705 42.7396 72.7556 42.8126 72.7266 42.8804C72.6976 42.9483 72.6552 43.0096 72.6019 43.0607C72.5486 43.1118 72.4855 43.1517 72.4164 43.1779C72.3472 43.2041 72.2735 43.2161 72.1996 43.2132C72.0577 43.2077 71.9235 43.1476 71.825 43.0456C71.7266 42.9435 71.6716 42.8075 71.6716 42.6659C71.6716 42.5243 71.7266 42.3883 71.825 42.2862C71.9235 42.1842 72.0577 42.1241 72.1996 42.1186ZM71.8772 44.211H72.6251L72.6326 49.4796H71.8847L71.8772 44.211Z" fill="white"/>
<path d="M78.3562 49.4681H77.6083L77.6024 46.0105C77.6024 45.2064 77.2079 44.7581 76.4784 44.7631C76.1875 44.7647 75.9043 44.856 75.6675 45.0245C75.4307 45.193 75.252 45.4304 75.156 45.7041L75.1618 49.4723H74.4131L74.4055 44.2036H74.9717L75.1258 44.7547H75.1643C75.3506 44.5456 75.5795 44.3786 75.8357 44.2647C76.092 44.1508 76.3696 44.0927 76.6501 44.0943C77.6954 44.0943 78.3202 44.6637 78.3503 45.8352L78.3562 49.4681Z" fill="white"/>
<path d="M83.672 49.5001C83.672 50.8845 82.8344 51.5742 81.5262 51.5758C80.5379 51.5758 80.0186 51.2293 79.8084 51.0164L80.2389 50.4152C80.4985 50.6766 80.9089 50.9087 81.6116 50.9079C82.5614 50.9079 82.9441 50.4403 82.9433 49.5009V49.0167H82.9056C82.7431 49.162 82.3017 49.4341 81.63 49.4341C80.5563 49.4341 79.6434 48.7587 79.6409 46.9677C79.6409 45.2827 80.4516 44.148 82.1786 44.1455C82.8403 44.1455 83.3512 44.2599 83.6661 44.4144L83.672 49.5001ZM82.0723 44.8051C81.0672 44.8051 80.3972 45.4731 80.3972 46.87C80.3972 48.3813 81.0907 48.777 81.8294 48.7762C82.2414 48.7762 82.6828 48.5908 82.9316 48.261L82.9265 44.9487C82.6531 44.8488 82.3635 44.8001 82.0723 44.8051Z" fill="white"/>
<path d="M90.5591 42.5645C91.586 42.5645 92.1237 42.931 92.3448 43.1239L91.8657 43.715C91.5776 43.4737 91.1839 43.2608 90.4838 43.2616C89.3112 43.2616 88.5951 44.1275 88.5976 46.0446C88.5976 47.8815 89.2836 48.8425 90.5692 48.8409C91.2501 48.8409 91.6429 48.6555 91.8824 48.4234L92.3012 48.9745C92.0039 49.265 91.4193 49.5472 90.4586 49.5489C88.6068 49.5489 87.8086 48.2071 87.8053 46.1147C87.8078 43.8862 88.7676 42.567 90.5591 42.5645Z" fill="white"/>
<path d="M97.1445 49.0345C96.8002 49.2959 96.2533 49.5105 95.5054 49.5113C94.0179 49.5113 93.2114 48.7498 93.208 46.7835C93.208 44.8756 94.2591 44.0891 95.42 44.0874C96.6578 44.0874 97.3203 44.8981 97.3229 46.1481C97.3206 46.4522 97.3019 46.7561 97.2667 47.0582L93.9467 47.0632C94.0162 48.3616 94.5548 48.8542 95.6 48.8525C96.1185 48.8525 96.5875 48.648 96.8086 48.4534L97.1445 49.0345ZM93.9559 46.4462H96.5749C96.5841 46.3401 96.5841 46.204 96.5841 46.1456C96.5841 45.2455 96.198 44.742 95.3538 44.7437C94.6704 44.7378 94.0188 45.1745 93.9534 46.4437L93.9559 46.4462Z" fill="white"/>
<path d="M102.636 49.4326H101.888L101.883 45.975C101.883 45.1709 101.487 44.7267 100.758 44.7276C100.467 44.7292 100.184 44.8205 99.9471 44.989C99.7103 45.1575 99.5316 45.3949 99.4355 45.6686L99.4414 49.4368H98.6926L98.6851 44.1681H99.2504L99.4054 44.7201H99.443C99.6295 44.511 99.8586 44.3439 100.115 44.2301C100.371 44.1162 100.649 44.0581 100.93 44.0596C101.976 44.0596 102.6 44.629 102.63 45.8005L102.636 49.4326Z" fill="white"/>
<path d="M104.359 48.0251L104.354 44.7687H103.576V44.2844L104.354 44.1375L104.581 42.7715H105.09V44.1567H106.529V44.767H105.091V47.9825C105.091 48.5728 105.39 48.8174 105.85 48.8174C106.269 48.8174 106.512 48.7197 106.646 48.6329L106.858 49.2324C106.657 49.3493 106.312 49.4754 105.685 49.4762C104.831 49.4771 104.359 49.0228 104.359 48.0251Z" fill="white"/>
<path d="M111.512 49.0136C111.167 49.2749 110.62 49.4895 109.872 49.4903C108.385 49.4903 107.578 48.7288 107.575 46.7625C107.575 44.8546 108.626 44.0681 109.787 44.0664C111.025 44.0664 111.687 44.8772 111.69 46.1271C111.687 46.4313 111.667 46.7351 111.631 47.0372L108.311 47.0422C108.381 48.3406 108.919 48.8332 109.964 48.8315C110.482 48.8315 110.952 48.627 111.172 48.4324L111.512 49.0136ZM108.323 46.4252H110.942C110.951 46.3191 110.951 46.183 110.951 46.1246C110.951 45.2245 110.565 44.721 109.721 44.7227C109.04 44.7168 108.387 45.1535 108.323 46.4227V46.4252Z" fill="white"/>
<path d="M115.672 44.8896C115.481 44.8357 115.284 44.8098 115.085 44.8128C114.577 44.8128 114.05 45.0182 113.802 45.4925L113.807 49.4168H113.069L113.061 44.1482H113.626L113.794 44.7326H113.833C114.062 44.3552 114.541 44.0647 115.146 44.0647C115.323 44.0603 115.5 44.0762 115.673 44.1123L115.672 44.8896Z" fill="white"/>
<path d="M124.122 12.567C124.145 12.5687 124.169 12.5687 124.192 12.567C124.235 12.5694 124.277 12.5593 124.314 12.5378C124.332 12.5239 124.347 12.5058 124.356 12.4852L124.213 12.3533C123.152 11.3763 122.101 10.395 121.058 9.40918V12.547L122.181 12.5536C122.827 12.5612 123.476 12.5244 124.122 12.567Z" fill="white"/>
<path d="M124.317 18.7696C124.317 18.7696 124.348 18.7587 124.351 18.7378C124.355 18.717 124.325 18.6961 124.313 18.6886C124.295 18.6775 124.275 18.6706 124.253 18.6685C124.184 18.6577 124.115 18.6547 124.045 18.6594C123.942 18.6752 122.82 18.6794 121.058 18.6769V21.798L124.317 18.7696Z" fill="white"/>
<path d="M132.023 2.08643H130.871C130.871 2.09227 130.871 2.09812 130.871 2.10396V2.08643H121.06C121.054 2.08643 121.067 2.08643 121.06 2.08643C121.054 2.08643 121.067 2.09812 121.06 2.1073C121.054 2.11648 121.06 2.12149 121.06 2.12901V2.1432C121.06 2.77193 121.06 3.50586 121.06 4.19303V5.26679C121.06 5.92641 121.06 6.77807 121.06 7.36171L121.836 8.08896C122.992 9.17497 124.148 10.2562 125.304 11.3328C125.379 11.3855 125.447 11.4475 125.507 11.5173C125.571 11.5956 125.625 11.6811 125.669 11.772C125.726 11.8767 125.772 11.9869 125.808 12.101C125.878 12.3433 125.884 12.5997 125.824 12.8448C125.764 13.0899 125.64 13.3151 125.466 13.4978C125.309 13.6676 125.12 13.8041 124.909 13.8992C124.698 13.9944 124.47 14.0461 124.239 14.0514L121.056 14.0397V17.185L122.741 17.1775L124.165 17.17C124.194 17.17 124.235 17.17 124.282 17.1775C124.387 17.1857 124.491 17.201 124.593 17.2234C124.737 17.2561 124.875 17.3066 125.006 17.3737C125.356 17.557 125.627 17.8626 125.765 18.2321C125.853 18.4662 125.878 18.719 125.839 18.966C125.798 19.2086 125.699 19.4377 125.55 19.634C125.498 19.7006 125.442 19.7642 125.382 19.8243C125.22 19.9943 125.048 20.154 124.867 20.3028C124.656 20.4748 123.679 21.3623 121.06 23.8455C121.081 23.8597 121.039 23.8747 121.06 23.8889C121.032 23.8697 121.066 23.8497 121.06 23.8455V27.1102C125.793 31.2483 127.284 32.6844 127.64 33.1336C128.05 33.6513 128.632 34.0078 129.106 34.4696C129.14 34.5033 129.182 34.5287 129.228 34.5439C129.261 34.558 129.298 34.5643 129.334 34.5623C129.37 34.5602 129.405 34.5499 129.437 34.5322C129.458 34.5168 129.475 34.4968 129.488 34.4737C129.453 27.8934 129.429 23.6435 129.423 23.5758C129.423 23.5399 129.418 23.504 129.418 23.4673C129.418 23.4105 129.425 23.4055 129.418 23.3905C129.396 23.332 129.289 23.307 129.206 23.3228C129.164 23.3312 129.125 23.3509 129.092 23.3796C127.209 24.9727 126.479 25.5914 126.204 25.8285L125.636 26.3137L125.152 26.7253L124.882 26.9532C124.559 26.5775 124.236 26.2015 123.914 25.8252C124.043 25.7167 124.226 25.5513 124.462 25.3526C125.007 24.8926 125.232 24.698 126.138 23.9282C126.945 23.2393 127.439 22.8193 127.595 22.6866L128.203 22.1706C128.262 22.1262 128.325 22.0857 128.39 22.0495C128.59 21.9401 128.809 21.8709 129.035 21.8458C129.192 21.8292 129.349 21.8323 129.505 21.855C129.765 21.8882 130.014 21.9817 130.232 22.128C130.275 22.1597 130.325 22.2015 130.325 22.2015C130.409 22.2683 130.475 22.3317 130.506 22.3626C130.628 22.4869 130.725 22.632 130.795 22.791C130.863 22.9501 130.904 23.1194 130.917 23.2919C130.927 23.3932 130.93 23.495 130.925 23.5967C130.933 24.4099 130.938 25.0687 130.939 25.5171C130.939 25.8786 130.939 26.0974 130.945 26.9699C130.945 27.6947 130.952 28.2516 130.953 28.5722C130.953 28.9622 130.959 29.3629 130.964 30.2672C130.964 30.3282 130.972 31.4111 130.976 32.0933C130.976 32.6402 130.985 33.4442 130.993 34.4395C130.995 34.5027 130.994 34.566 130.988 34.629C130.954 34.9219 130.84 35.2 130.659 35.4331C130.611 35.4926 130.558 35.5484 130.501 35.6001C130.305 35.7747 130.073 35.9054 129.822 35.9833C129.503 36.0794 129.164 36.0852 128.843 36C128.573 35.9231 128.325 35.7848 128.118 35.5959C126.2 33.916 123.186 31.042 123.186 31.042C122.6 30.4835 121.991 29.9357 121.991 29.9357C121.605 29.5884 121.281 29.3078 121.063 29.1216V33.8191L128.772 40.6658C128.863 40.7509 128.944 40.8446 129.016 40.9455C129.09 41.0496 129.151 41.1617 129.2 41.2795C129.292 41.5028 129.326 41.7459 129.298 41.9859C129.262 42.2458 129.157 42.4916 128.994 42.6981C128.902 42.8259 128.793 42.9407 128.669 43.0396C127.844 43.7977 127.014 44.5573 126.179 45.3182C125.724 45.7312 125.27 46.1432 124.816 46.554C124.978 46.6825 125.201 46.8495 125.479 47.029C125.969 47.3377 126.486 47.601 127.024 47.8156C127.693 48.0901 128.39 48.293 129.102 48.4209C129.589 48.5009 130.08 48.5448 130.573 48.552H132.026L132.023 2.08643ZM130.934 5.38619C130.934 5.58241 130.934 5.6442 130.934 6.06251C130.934 6.5543 130.934 6.50504 130.934 6.84236C130.934 7.06112 130.934 7.14212 130.934 7.5262V8.05222C130.934 8.09063 130.934 8.13572 130.924 8.19333C130.918 8.24555 130.91 8.29741 130.898 8.34864C130.874 8.45483 130.838 8.55792 130.79 8.6559C130.759 8.72074 130.724 8.78325 130.684 8.84293C130.604 8.9649 130.506 9.07483 130.395 9.1694C130.338 9.2169 130.278 9.26068 130.215 9.30049C130.169 9.33055 130.131 9.35142 130.113 9.36144C130.094 9.37146 130.029 9.40737 129.945 9.44494C129.848 9.48519 129.748 9.51731 129.645 9.54096C129.504 9.57194 129.359 9.58596 129.215 9.58271C128.949 9.58496 128.687 9.52278 128.451 9.40152C128.328 9.33551 128.216 9.2529 128.116 9.15604C127.97 9.03915 127.749 8.8613 127.483 8.63837C127.187 8.38788 126.973 8.20502 126.888 8.13071C126.386 7.6957 125.278 6.77807 125.278 6.77807C124.911 6.47331 124.399 6.04331 123.746 5.47887C123.809 5.39538 123.86 5.33693 123.893 5.29852C124.191 4.93782 124.344 4.78252 124.639 4.41847L124.703 4.33999L129.106 8.04387C129.13 8.06569 129.159 8.08194 129.19 8.09147C129.234 8.10237 129.28 8.10063 129.324 8.08646C129.362 8.08053 129.396 8.06129 129.422 8.03218C129.434 8.01172 129.441 7.9878 129.439 7.96372C129.439 7.88774 129.439 6.62778 129.439 4.90526H130.933V4.91193C130.933 5.01464 130.933 5.11233 130.933 5.11233C130.939 5.25176 130.938 5.35363 130.938 5.38619H130.934Z" fill="white"/>
<path d="M126.955 42.5814L127.191 42.3659L127.574 42.0128L127.658 41.9334L127.692 41.9034C127.702 41.8934 127.765 41.8391 127.775 41.8199C127.778 41.8152 127.782 41.8108 127.785 41.8065C127.788 41.8041 127.79 41.8013 127.791 41.7982C127.791 41.7982 127.791 41.7907 127.779 41.784C127.671 41.6938 127.506 41.5535 127.306 41.3807C126.347 40.5524 125.663 39.902 125.492 39.7408C124.92 39.2014 123.726 38.1435 121.058 35.7998C121.058 36.1004 121.058 36.3768 121.058 36.6782V37.7152C121.058 38.1135 121.058 38.2813 121.058 38.6036C121.058 38.7355 121.058 39.0286 121.058 39.1271C121.069 39.6595 121.123 40.19 121.221 40.7136C121.519 42.3039 122.217 43.7929 123.25 45.0412C123.418 45.2407 123.567 45.4085 123.692 45.5421C125.313 44.0693 126.493 42.9955 126.677 42.8277L126.955 42.5814Z" fill="white"/>
<path d="M140.801 14.1225H140.248C139.966 14.1225 139.972 14.1225 139.956 14.1225C139.675 14.1024 139.404 14.0166 139.163 13.8721C139.004 13.7762 138.862 13.6542 138.744 13.5113C138.602 13.3401 138.498 13.1409 138.439 12.9269C138.385 12.7179 138.376 12.4999 138.413 12.2873C138.448 12.0862 138.524 11.8944 138.636 11.7237C138.681 11.6561 138.732 11.5924 138.788 11.5333C139.123 11.1851 141.887 8.64603 142.07 8.48321C141.654 7.54777 141.107 6.67621 140.444 5.89483C140.327 5.75623 140.224 5.64434 140.148 5.56085C139.219 6.38022 138.276 7.19848 137.319 8.01563C136.878 8.39192 136.438 8.76571 135.998 9.13699C135.933 9.19546 135.864 9.24852 135.792 9.29563C135.611 9.40902 135.41 9.48538 135.2 9.52023C135 9.56305 134.794 9.56928 134.591 9.5386C134.284 9.48332 133.996 9.35148 133.754 9.15535C133.694 9.11341 133.638 9.06649 133.586 9.01508C133.429 8.84827 133.314 8.64645 133.251 8.42643C133.224 8.34452 133.202 8.26083 133.186 8.17595C133.181 7.86033 133.178 7.54249 133.177 7.22242C133.172 6.42754 133.175 5.64267 133.186 4.86783H134.676V7.95051C134.672 7.9636 134.672 7.97749 134.676 7.99058C134.701 8.05822 134.83 8.07408 134.906 8.05822C134.936 8.05328 134.964 8.0428 134.99 8.02732C135.007 8.01743 135.023 8.00505 135.036 7.99058C135.075 7.95134 136.627 6.63127 139.072 4.55221C138.957 4.45703 138.795 4.32761 138.596 4.18066C137.019 3.02091 135.155 2.31293 133.204 2.13333L132.943 2.11246C132.884 2.11246 132.73 2.09826 132.524 2.09242C132.376 2.08741 132.227 2.0849 132.022 2.08741V16.3018H142.985V14.1033C142.606 14.1092 142.263 14.1134 141.96 14.1159C141.79 14.1175 141.275 14.1225 140.801 14.1225Z" fill="white"/>
<path d="M139.905 12.5427C139.899 12.554 139.897 12.5669 139.899 12.5795C139.905 12.602 139.931 12.6145 139.947 12.6221C139.989 12.6385 140.034 12.6437 140.078 12.6371L142.987 12.6179C142.979 12.228 142.951 11.8798 142.916 11.5825C142.873 11.2168 142.818 10.9146 142.773 10.6958C142.721 10.4386 142.665 10.2132 142.614 10.0278C141.568 10.9864 139.929 12.4968 139.905 12.5427Z" fill="white"/>
<path d="M139.023 39.3186L137.713 40.5018C137.116 41.042 136.598 41.5096 136.178 41.887C136.406 42.104 136.745 42.4238 137.157 42.8104L137.765 43.3774C138.853 44.386 139.658 45.1082 139.991 45.4088C140.715 46.0618 141.707 46.9685 142.985 48.1917V35.7183L141.013 37.5126C140.287 38.173 139.712 38.6949 139.023 39.3186Z" fill="white"/>
<path d="M141.077 18.5966C140.981 18.5966 140.884 18.5966 140.787 18.5966C140.517 18.5821 140.247 18.5858 139.978 18.6074H139.968C139.937 18.6133 139.884 18.6275 139.88 18.6517C139.876 18.6759 139.89 18.6792 139.896 18.6884C139.905 18.7008 139.917 18.7113 139.93 18.7193L140.146 18.9197C140.804 19.561 141.494 20.2044 142.216 20.8501C142.476 21.0831 142.718 21.2852 142.981 21.5098V18.5874C142.975 18.5916 141.366 18.6008 141.077 18.5966Z" fill="white"/>
<path d="M142.985 17.1049V16.3042H132.022V48.5479H141.091C140.024 47.5459 138.952 46.5281 137.873 45.5287C137.508 45.1947 137.142 44.8579 136.776 44.5184C136.746 44.4917 136.524 44.2879 136.219 44.0082C135.899 43.7126 135.633 43.468 135.451 43.2985C135.381 43.2275 135.322 43.1733 135.283 43.1365C135.199 43.063 135.17 43.0422 135.116 42.9845C135.064 42.9328 135.016 42.877 134.973 42.8176C134.876 42.6909 134.798 42.5501 134.743 42.4001C134.66 42.1705 134.636 41.924 134.673 41.6828C134.719 41.404 134.838 41.1424 135.02 40.9255C135.068 40.8689 135.12 40.8157 135.175 40.7661C135.938 40.0889 136.752 39.4243 137.465 38.7104C137.592 38.5835 137.7 38.4766 137.8 38.3822C138.42 37.7752 138.586 37.68 140.243 36.1729C141.321 35.1927 142.337 34.2525 142.626 33.987L142.993 33.6455V29.2236L137.929 33.8993L137.024 34.7343C136.719 35.0157 136.54 35.161 136.308 35.3956C136.286 35.4181 136.196 35.5091 136.067 35.6202C135.957 35.7199 135.838 35.8086 135.71 35.8849C135.446 36.0397 135.143 36.118 134.837 36.1112C134.79 36.1112 134.744 36.1111 134.697 36.1036C134.504 36.0884 134.315 36.0436 134.137 35.9709C134.089 35.95 134.036 35.9224 134.036 35.9224C133.936 35.873 133.841 35.8149 133.752 35.7488C133.627 35.6545 133.517 35.5419 133.426 35.4148C133.27 35.1998 133.173 34.947 133.147 34.6825C133.139 34.5925 133.139 34.502 133.147 34.412C133.196 33.8058 133.219 26.525 133.197 25.1439C133.188 24.597 133.234 24.0501 133.206 23.5041C133.193 23.2563 133.235 23.0087 133.33 22.7793C133.402 22.6117 133.503 22.4578 133.627 22.3243C133.823 22.1219 134.064 21.9693 134.331 21.8793C134.598 21.7894 134.883 21.7647 135.162 21.8074C135.223 21.8164 135.284 21.8286 135.344 21.8442C135.669 21.9277 135.891 22.0947 136.112 22.2616C136.167 22.3026 136.261 22.3944 136.453 22.5572C136.576 22.6624 136.668 22.7376 136.704 22.7685C136.917 22.9446 137.123 23.1217 137.321 23.292L137.439 23.3939C137.797 23.7003 138.83 24.5812 140.264 25.8044C140.11 25.9864 139.954 26.1687 139.797 26.3513C139.627 26.5506 139.456 26.7487 139.286 26.9458V26.95L137.328 25.2725L135.058 23.3371C135.017 23.3104 134.97 23.2946 134.921 23.2912C134.874 23.2894 134.826 23.3004 134.784 23.3229C134.766 23.3326 134.749 23.3447 134.735 23.3588C134.74 26.9508 134.719 30.5548 134.673 34.1707C134.673 34.25 134.668 34.4546 134.668 34.5331C134.688 34.5564 134.713 34.575 134.741 34.5873C134.768 34.5975 134.796 34.6029 134.825 34.6032H134.854C134.895 34.6032 134.935 34.5947 134.972 34.5782C135.018 34.5568 135.058 34.5229 135.085 34.4805C136.235 33.4393 137.161 32.5901 137.782 32.0173L137.866 31.943C138.981 30.9102 139.101 30.7883 140.334 29.6477C141.31 28.7435 141.614 28.4679 142.595 27.5603C142.762 27.405 142.895 27.2798 143.014 27.1721V23.6519L140.816 21.6045L138.767 19.6966C138.698 19.6087 138.635 19.5154 138.58 19.4178C138.493 19.2781 138.429 19.1253 138.391 18.9652C138.355 18.7804 138.36 18.59 138.406 18.4075C138.46 18.157 138.57 17.9222 138.73 17.7211C138.978 17.4208 139.323 17.2145 139.705 17.1367C139.76 17.125 139.803 17.1183 139.831 17.1141L143.014 17.1024L142.985 17.1049Z" fill="white"/>
<path d="M142.985 48.1919V35.7192C143.803 34.9678 144.744 34.0919 145.79 33.1309V33.2469C145.721 38.1498 145.743 40.3441 145.79 41.346V43.1721C145.79 43.2239 145.784 43.2765 145.783 43.3282C145.756 43.9371 145.686 44.5434 145.575 45.1426C145.304 46.5693 144.778 47.9357 144.021 49.1763L142.985 48.1919Z" fill="white"/>
<path d="M142.985 16.3042V27.1737C143.308 26.8397 145.343 25.0028 145.79 24.5995V16.3042H142.985Z" fill="white"/>
<path d="M143.068 50.4017C142.461 51.1473 141.769 51.8199 141.005 52.4056C140.258 52.9844 139.445 53.4737 138.584 53.8635C137.974 54.1367 137.342 54.3573 136.694 54.5231C136.137 54.6678 135.571 54.7719 134.998 54.8345C134.186 54.9256 133.51 54.918 132.718 54.9097C132.389 54.9097 132.203 54.898 132.022 54.8897V48.5439H141.09L143.068 50.4017Z" fill="white"/>
<path d="M142.985 29.2215V33.6418C143.54 33.1283 144.068 32.6399 144.802 31.9811C145.221 31.6062 145.563 31.3014 145.79 31.101V26.6006C144.744 27.5708 143.813 28.4542 142.985 29.2215Z" fill="white"/>
</g>
</svg>
