<svg width="95" height="57" viewBox="0 0 95 57" fill="none" xmlns="http://www.w3.org/2000/svg">
<g opacity="0.4" clip-path="url(#clip0_6162_2823)">
<path d="M94.9112 11.0552H89.067V36.6288H94.9112V11.0552Z" fill="white"/>
<path d="M85.11 11.0552H79.266V36.6288H85.11V11.0552Z" fill="white"/>
<path d="M75.3091 11.0552H69.4649V36.6288H75.3091V11.0552Z" fill="white"/>
<path d="M85.111 36.6276V30.8154H10.677V36.6276H85.111Z" fill="white"/>
<path d="M13.0888 16.8674V11.0552H4.30725V16.8674H13.0888Z" fill="white"/>
<path d="M71.3744 16.8673V11.0552H62.593V16.8673H71.3744Z" fill="white"/>
<path d="M65.508 11.0552H59.6638V26.8841H65.508V11.0552Z" fill="white"/>
<path d="M55.7162 11.0552H49.872V36.6288H55.7162V11.0552Z" fill="white"/>
<path d="M45.9151 11.0552H40.0709V36.6288H45.9151V11.0552Z" fill="white"/>
<path d="M36.1141 11.0552H30.2699V36.6288H36.1141V11.0552Z" fill="white"/>
<path d="M26.313 11.0552H20.4688V36.6288H26.313V11.0552Z" fill="white"/>
<path d="M16.5212 11.0552H10.677V36.6288H16.5212V11.0552Z" fill="white"/>
<path d="M6.72012 11.0552H0.875916V36.6288H6.72012V11.0552Z" fill="white"/>
<path d="M16.4127 4.63864L12.2802 0.528809L8.14771 4.63864L12.2802 8.74847L16.4127 4.63864Z" fill="white"/>
<path d="M9.24316 4.63864L5.11068 0.528809L0.97821 4.63864L5.11068 8.74848L9.24316 4.63864Z" fill="white"/>
<path d="M27.5248 43.062L23.3924 38.9521L19.2599 43.062L23.3924 47.1718L27.5248 43.062Z" fill="white"/>
<path d="M16.709 42.6157H0.875916V43.5457H16.709V42.6157Z" fill="white"/>
<path d="M94.9034 42.6157H30.0653V43.5457H94.9034V42.6157Z" fill="white"/>
<path d="M2.05377 54.0643L1.31741 55.6836H0.94104L3.5347 49.9946H3.90288L6.52109 55.6836H6.14472L5.40016 54.0643H2.05377ZM3.71469 50.3864L2.20105 53.7226H5.24471L3.71469 50.3864Z" fill="white"/>
<path d="M14.3184 55.35V55.6836H11.4302V49.9946H11.7739V55.35H14.3184Z" fill="white"/>
<path d="M23.6038 55.6836V52.9983H19.7338V55.6836H19.3901V49.9946H19.7338V52.6636H23.6038V49.9946H23.9474V55.6836H23.6038Z" fill="white"/>
<path d="M29.777 55.6836V49.9946H30.1207V55.6836H29.777Z" fill="white"/>
<path d="M39.1019 50.4399L38.9464 50.7491C38.521 50.4725 37.94 50.3341 37.4491 50.3341C36.5409 50.3341 35.9518 50.7084 35.9518 51.3024C35.9518 53.0356 39.3146 52.1405 39.2982 54.2399C39.2982 55.1187 38.5046 55.6883 37.31 55.6883C36.5491 55.6883 35.7718 55.3547 35.2727 54.8664L35.4527 54.5654C35.9191 55.0455 36.6473 55.3384 37.3182 55.3384C38.3 55.3384 38.93 54.9153 38.93 54.2481C38.9464 52.466 35.5837 53.3774 35.5837 51.3269C35.5837 50.505 36.3363 49.9761 37.4655 49.9761C38.0464 49.9761 38.6764 50.1633 39.1019 50.4399Z" fill="white"/>
<path d="M47.0511 49.9934C48.1721 49.9934 48.8348 50.5141 48.8348 51.401C48.8348 52.1008 48.4339 52.5809 47.7303 52.7112C48.6058 52.8169 49.1212 53.3539 49.1212 54.1514C49.1212 55.1197 48.3684 55.6811 47.0675 55.6811H44.7111V49.9922H47.0511V49.9934ZM45.0548 52.5728H47.043C47.9594 52.5728 48.4912 52.1659 48.4912 51.4418C48.4912 50.7175 47.9594 50.3269 47.043 50.3269H45.0548V52.5728ZM45.0548 55.3475H47.043C48.1475 55.3475 48.7775 54.9 48.7775 54.1107C48.7775 53.3214 48.1475 52.9064 47.043 52.9064H45.0548V55.3475Z" fill="white"/>
<path d="M54.695 54.0643L53.9587 55.6836H53.5823L56.176 49.9946H56.5441L59.1624 55.6836H58.786L58.0414 54.0643H54.695ZM56.356 50.3864L54.8423 53.7226H57.886L56.356 50.3864Z" fill="white"/>
<path d="M64.0688 55.445C64.0688 55.6159 63.9379 55.746 63.7824 55.746C63.6269 55.746 63.5043 55.6159 63.5043 55.445C63.5043 55.274 63.6269 55.1602 63.7824 55.1602C63.9379 55.1602 64.0688 55.2822 64.0688 55.445Z" fill="white"/>
<path d="M73.6967 50.7503L73.4922 51.0106C73.0176 50.5712 72.3713 50.3108 71.6922 50.3108C70.2439 50.3108 69.074 51.4338 69.074 52.8252C69.074 54.2166 70.2439 55.3558 71.6922 55.3558C72.3713 55.3558 73.0094 55.0955 73.4922 54.6641L73.7049 54.9002C73.1731 55.3884 72.4449 55.6895 71.6839 55.6895C70.0558 55.6895 68.7303 54.4119 68.7303 52.8333C68.7303 51.2547 70.0558 49.9854 71.6839 49.9854C72.4531 49.9854 73.1649 50.2783 73.6967 50.7503Z" fill="white"/>
<path d="M84.111 52.8333C84.111 54.4119 82.7855 55.6895 81.1491 55.6895C79.5127 55.6895 78.1873 54.4119 78.1873 52.8333C78.1873 51.2547 79.5127 49.9854 81.1491 49.9854C82.7855 49.9854 84.111 51.2547 84.111 52.8333ZM78.5391 52.8333C78.5391 54.2248 79.7173 55.3558 81.1491 55.3558C82.581 55.3558 83.7591 54.2248 83.7591 52.8333C83.7591 51.4419 82.581 50.319 81.1491 50.319C79.7173 50.319 78.5391 51.4419 78.5391 52.8333Z" fill="white"/>
<path d="M94.531 55.6836L94.5226 50.4665L92.1743 55.064H92.019L89.6548 50.4665V55.6836H89.3274V49.9946H89.8017L92.1013 54.47L94.3841 49.9946H94.8584V55.6836H94.531Z" fill="white"/>
</g>
<defs>
<clipPath id="clip0_6162_2823">
<rect width="94.0308" height="55.9424" fill="white" transform="translate(0.875916 0.528809)"/>
</clipPath>
</defs>
</svg>
