<svg width="101" height="43" viewBox="0 0 101 43" fill="none" xmlns="http://www.w3.org/2000/svg">
<g opacity="0.6" clip-path="url(#clip0_6162_2804)">
<mask id="mask0_6162_2804" style="mask-type:luminance" maskUnits="userSpaceOnUse" x="0" y="0" width="101" height="43">
<path d="M0.690796 0.67041H100.673V42.3296H0.690796V0.67041Z" fill="white"/>
</mask>
<g mask="url(#mask0_6162_2804)">
<path d="M11.8677 21.5002C6.65853 21.5002 2.4576 17.2475 2.4576 11.9533C2.4576 6.74588 6.65853 2.49316 11.8677 2.49316C16.9928 2.49316 21.1938 6.74588 21.1938 11.9533C21.1938 17.2475 16.9928 21.5002 11.8677 21.5002Z" fill="#E9E9E9" fill-opacity="0.6"/>
<path d="M30.521 21.5002C25.3959 21.5002 21.195 17.2475 21.195 11.9533C21.195 6.74588 25.3959 2.49316 30.521 2.49316C35.7302 2.49316 39.9311 6.74588 39.9311 11.9533C39.9311 17.2475 35.7302 21.5002 30.521 21.5002Z" fill="#E9E9E9" fill-opacity="0.6"/>
<path d="M70.8415 39.9865C65.6324 39.9865 61.4315 35.7338 61.4315 30.5264C61.4315 25.2322 65.6324 20.9795 70.8415 20.9795C75.9667 20.9795 80.1676 25.2322 80.1676 30.5264C80.1676 35.7338 75.9667 39.9865 70.8415 39.9865Z" fill="#E9E9E9" fill-opacity="0.6"/>
<path d="M89.4949 39.9865C84.3697 39.9865 80.1688 35.7338 80.1688 30.5264C80.1688 25.2322 84.3697 20.9795 89.4949 20.9795C94.704 20.9795 98.905 25.2322 98.905 30.5264C98.905 35.7338 94.704 39.9865 89.4949 39.9865Z" fill="#E9E9E9" fill-opacity="0.6"/>
<path fill-rule="evenodd" clip-rule="evenodd" d="M100.589 30.5262C100.589 36.6883 95.6315 41.7221 89.4982 41.7221C85.6333 41.7221 82.1045 39.6391 80.1721 36.5147C78.1556 39.6391 74.7109 41.7221 70.846 41.7221C65.6369 41.7221 61.3519 38.1637 60.0916 33.3903C58.9994 38.5109 54.5464 42.3296 49.2532 42.3296C46.3126 42.3296 43.456 41.1146 41.4395 38.9448L39.171 36.6883V39.5524L36.5664 36.9487V31.5677H41.7756L44.3802 34.1714H41.6075L43.876 36.5147C45.3044 37.9901 47.2368 38.7713 49.2532 38.7713C53.4542 38.7713 56.8989 35.2996 56.8989 31.0469C56.8989 26.7074 53.4542 23.2358 49.2532 23.2358C45.3044 23.2358 41.8596 21.1529 39.9272 18.0284C37.9107 21.1529 34.466 23.2358 30.5171 23.2358C26.6522 23.2358 23.2075 21.1529 21.191 18.0284C19.2586 21.1529 15.7298 23.2358 11.8649 23.2358C5.73159 23.2358 0.774486 18.202 0.774486 11.9531C0.774486 5.79102 5.73159 0.67041 11.8649 0.67041C15.7298 0.67041 19.2586 2.84016 21.191 5.9646C23.2075 2.84016 26.6522 0.67041 30.5171 0.67041C34.466 0.67041 37.9107 2.75337 39.9272 5.87781C41.8596 2.75337 45.3044 0.67041 49.2532 0.67041C49.3092 0.67041 49.3653 0.69934 49.4213 0.7572V0.67041H60.3437V4.2288H57.319C59.1674 6.22497 60.3437 9.00226 60.3437 11.9531C60.3437 15.9455 58.2432 19.5039 55.2186 21.5C57.4871 22.9755 59.2515 25.3188 59.9236 28.0961C61.0158 23.0622 65.4688 19.2435 70.846 19.2435C74.7109 19.2435 78.1556 21.3264 80.1721 24.4509C82.1045 21.3264 85.6333 19.2435 89.4982 19.2435C95.6315 19.2435 100.589 24.2773 100.589 30.5262ZM19.4266 11.9531C19.4266 7.70041 16.0659 4.2288 11.8649 4.2288C7.66401 4.2288 4.21925 7.70041 4.21925 11.9531C4.21925 16.2926 7.66401 19.7642 11.8649 19.7642C16.0659 19.7642 19.4266 16.2926 19.4266 11.9531ZM38.1628 12.5606C38.1628 12.3871 38.1628 12.1846 38.1628 11.9531C38.1628 11.7795 38.1628 11.606 38.1628 11.4324C37.9107 7.44004 34.55 4.2288 30.5171 4.2288C26.3162 4.2288 22.9554 7.70041 22.9554 11.9531C22.9554 16.2926 26.3162 19.7642 30.5171 19.7642C34.55 19.7642 37.9107 16.553 38.1628 12.5606ZM56.8989 11.9531C56.8989 7.70041 53.4542 4.2288 49.2532 4.2288C45.2203 4.2288 41.9436 7.44004 41.6075 11.4324C41.6075 11.606 41.6075 11.7795 41.6075 11.9531C41.6075 12.1846 41.6075 12.3871 41.6075 12.5606C41.9436 16.553 45.2203 19.7642 49.2532 19.7642C53.4542 19.7642 56.8989 16.2926 56.8989 11.9531ZM78.4077 30.5262C78.4077 26.1867 75.047 22.7151 70.846 22.7151C66.5611 22.7151 63.2003 26.1867 63.2003 30.5262C63.2003 34.7789 66.5611 38.2505 70.846 38.2505C75.047 38.2505 78.4077 34.7789 78.4077 30.5262ZM97.1439 30.5262C97.1439 26.1867 93.6991 22.7151 89.4982 22.7151C85.2972 22.7151 81.9365 26.1867 81.9365 30.5262C81.9365 34.7789 85.2972 38.2505 89.4982 38.2505C93.6991 38.2505 97.1439 34.7789 97.1439 30.5262Z" fill="white"/>
<path d="M19.5924 30.179C19.5364 29.4847 19.1723 29.1375 18.5001 29.1375C18.2761 29.1375 18.08 29.1954 17.912 29.3111C17.744 29.4268 17.6039 29.5715 17.4919 29.7451C17.3799 29.9765 17.2959 30.179 17.2398 30.3526C17.1838 30.5841 17.1558 30.8155 17.1558 31.0469C17.1558 31.2205 17.1838 31.423 17.2398 31.6545C17.2959 31.8859 17.3799 32.0884 17.4919 32.262C17.5479 32.4356 17.6599 32.5513 17.828 32.6092C17.996 32.7249 18.2201 32.7827 18.5001 32.7827C18.8362 32.7827 19.1163 32.6959 19.3403 32.5224C19.5083 32.2909 19.6204 32.0016 19.6764 31.6545H21.1887C21.0767 32.4066 20.7686 32.9852 20.2645 33.3903C19.8164 33.7953 19.2283 33.9978 18.5001 33.9978C18.052 33.9978 17.6599 33.911 17.3239 33.7374C16.9878 33.6217 16.6797 33.4192 16.3997 33.1299C16.1756 32.8985 16.0076 32.6092 15.8955 32.262C15.7275 31.9148 15.6435 31.5098 15.6435 31.0469C15.6435 30.6419 15.7275 30.2369 15.8955 29.8319C16.0076 29.4847 16.1756 29.1665 16.3997 28.8772C16.6797 28.5879 16.9878 28.3854 17.3239 28.2696C17.6599 28.0961 18.052 28.0093 18.5001 28.0093C18.8362 28.0093 19.1443 28.0382 19.4243 28.0961C19.7604 28.2118 20.0405 28.3564 20.2645 28.53C20.4886 28.7036 20.6846 28.935 20.8526 29.2243C21.0207 29.5136 21.1047 29.8319 21.1047 30.179H19.5924Z" fill="white"/>
<path fill-rule="evenodd" clip-rule="evenodd" d="M22.7857 29.9187C22.8417 29.5136 22.9538 29.1954 23.1218 28.964C23.2338 28.7325 23.4299 28.5589 23.7099 28.4432C23.934 28.2696 24.214 28.1539 24.5501 28.0961C24.8302 28.0382 25.1382 28.0093 25.4743 28.0093C25.7544 28.0093 26.0344 28.0382 26.3145 28.0961C26.5946 28.0961 26.8466 28.1539 27.0707 28.2696C27.2947 28.3854 27.4908 28.5589 27.6588 28.7904C27.8268 29.0218 27.9109 29.3111 27.9109 29.6583V32.5224C27.9109 32.8117 27.9109 33.072 27.9109 33.3035C27.9669 33.5349 28.0229 33.7085 28.0789 33.8242H26.5666C26.5106 33.7085 26.4825 33.6217 26.4825 33.5638C26.4265 33.4481 26.3985 33.3613 26.3985 33.3035C26.1745 33.5349 25.8944 33.7085 25.5583 33.8242C25.2223 33.9399 24.8862 33.9978 24.5501 33.9978C24.2701 33.9978 24.018 33.9689 23.794 33.911C23.5699 33.7953 23.3739 33.6796 23.2058 33.5638C23.0378 33.4481 22.8978 33.2745 22.7857 33.0431C22.6737 32.8117 22.6177 32.5513 22.6177 32.262C22.6177 31.9727 22.6737 31.7123 22.7857 31.4809C22.8978 31.2494 23.0378 31.0759 23.2058 30.9601C23.4299 30.8444 23.6539 30.7576 23.878 30.6998C24.102 30.6419 24.3261 30.5841 24.5501 30.5262C24.7742 30.5262 24.9982 30.4973 25.2223 30.4394C25.4463 30.4394 25.6424 30.4105 25.8104 30.3526C25.9784 30.2947 26.1185 30.2369 26.2305 30.179C26.3425 30.1212 26.3985 30.0054 26.3985 29.8319C26.3985 29.6583 26.3705 29.5136 26.3145 29.3979C26.2585 29.2822 26.1745 29.2243 26.0625 29.2243C25.9504 29.1665 25.8384 29.1086 25.7264 29.0508C25.6144 29.0508 25.5023 29.0508 25.3903 29.0508C25.0542 29.0508 24.8022 29.1086 24.6341 29.2243C24.4661 29.3979 24.3821 29.6294 24.3821 29.9187H22.7857ZM26.3145 31.0469C26.2585 31.1048 26.1745 31.1627 26.0625 31.2205C25.9504 31.2205 25.8384 31.2494 25.7264 31.3073C25.6144 31.3073 25.5023 31.3073 25.3903 31.3073C25.2783 31.3073 25.1663 31.3362 25.0542 31.3941C24.8862 31.3941 24.7462 31.423 24.6341 31.4809C24.5221 31.5387 24.4381 31.5966 24.3821 31.6545C24.3261 31.7123 24.2701 31.7702 24.214 31.828C24.158 31.9438 24.13 32.0595 24.13 32.1752C24.13 32.3488 24.158 32.4934 24.214 32.6092C24.2701 32.667 24.3261 32.7249 24.3821 32.7827C24.4941 32.8406 24.6061 32.8695 24.7182 32.8695C24.8302 32.9274 24.9422 32.9563 25.0542 32.9563C25.3343 32.9563 25.5583 32.8985 25.7264 32.7827C25.8944 32.667 26.0344 32.5513 26.1465 32.4356C26.2025 32.262 26.2305 32.1173 26.2305 32.0016C26.2865 31.828 26.3145 31.7123 26.3145 31.6545V31.0469Z" fill="white"/>
<path d="M29.9267 28.1829H31.355V29.2243H31.439C31.495 29.0508 31.579 28.8772 31.691 28.7036C31.8031 28.5879 31.9431 28.4722 32.1111 28.3564C32.2792 28.2407 32.4472 28.1539 32.6153 28.0961C32.7833 28.0382 32.9793 28.0093 33.2034 28.0093C33.3154 28.0093 33.4274 28.0382 33.5395 28.0961V29.4847C33.4834 29.4847 33.3994 29.4847 33.2874 29.4847C33.1754 29.4847 33.0634 29.4847 32.9513 29.4847C32.6713 29.4847 32.4472 29.5136 32.2792 29.5715C32.0551 29.6872 31.8871 29.8319 31.7751 30.0054C31.663 30.179 31.579 30.3526 31.523 30.5262C31.467 30.7576 31.439 31.018 31.439 31.3073V33.8242H29.9267V28.1829Z" fill="white"/>
</g>
</g>
<defs>
<clipPath id="clip0_6162_2804">
<rect width="99.9822" height="41.6592" fill="white" transform="translate(0.690796 0.67041)"/>
</clipPath>
</defs>
</svg>
