<svg width="20" height="20" viewBox="0 0 20 20" fill="none" xmlns="http://www.w3.org/2000/svg">
<path d="M19.4113 17.7527L15.0008 13.3422C16.0626 11.9286 16.6358 10.208 16.6339 8.44C16.6339 3.92406 12.9598 0.25 8.44391 0.25C3.92797 0.25 0.253906 3.92406 0.253906 8.44C0.253906 12.9559 3.92797 16.63 8.44391 16.63C10.2119 16.6319 11.9325 16.0587 13.3461 14.9969L17.7566 19.4073C17.9798 19.6069 18.271 19.7135 18.5703 19.7051C18.8697 19.6967 19.1545 19.574 19.3662 19.3623C19.5779 19.1506 19.7006 18.8658 19.709 18.5664C19.7174 18.2671 19.6108 17.9759 19.4113 17.7527ZM2.59391 8.44C2.59391 7.28298 2.937 6.15194 3.57981 5.18991C4.22262 4.22789 5.13626 3.47808 6.20521 3.03531C7.27416 2.59253 8.4504 2.47668 9.58519 2.70241C10.72 2.92813 11.7623 3.48529 12.5805 4.30343C13.3986 5.12156 13.9558 6.16393 14.1815 7.29872C14.4072 8.43351 14.2914 9.60975 13.8486 10.6787C13.4058 11.7476 12.656 12.6613 11.694 13.3041C10.732 13.9469 9.60093 14.29 8.44391 14.29C6.89296 14.2881 5.40607 13.6712 4.30939 12.5745C3.2127 11.4778 2.59577 9.99095 2.59391 8.44Z" fill="#B0B0BA"/>
</svg>
