<svg width="365" height="42" viewBox="0 0 365 42" fill="none" xmlns="http://www.w3.org/2000/svg">
<path d="M45.5418 37.8468C45.0515 38.2191 44.4464 38.665 43.7263 39.1843C43.0819 39.6583 42.3958 40.0729 41.6764 40.423C40.7872 40.8259 39.8552 41.1266 38.8981 41.3192C37.8579 41.5211 36.8001 41.6181 35.7406 41.6088C33.2458 41.6828 30.8193 40.7875 28.9705 39.1108C28.0799 38.3073 27.3746 37.3198 26.9036 36.2167C26.4326 35.1135 26.2071 33.9212 26.2427 32.7222C26.1622 30.9277 26.6443 29.1529 27.6216 27.6458C28.6257 26.2685 29.9891 25.1937 31.5627 24.5388C33.5608 23.7009 35.6704 23.159 37.8249 22.9302C40.3191 22.61 42.9036 22.3749 45.5785 22.2247V22.0707C45.6328 21.3971 45.4772 20.7231 45.1333 20.1414C44.7893 19.5596 44.2738 19.0985 43.6574 18.8213C41.8558 18.1293 39.9291 17.8232 38.0019 17.9228C36.3748 17.9418 34.76 18.2076 33.2127 18.711C31.5145 19.2418 30.2919 19.6509 29.5496 19.9359H28.7223V13.0969C29.6829 12.8441 31.2502 12.5453 33.4081 12.2029C35.5571 11.8576 37.7303 11.684 39.9069 11.6836C43.7909 11.3812 47.6795 12.2071 51.1053 14.062C52.2709 14.9134 53.1994 16.0486 53.8027 17.3598C54.406 18.671 54.6641 20.1147 54.5524 21.5537V40.8573H45.5418V37.8468ZM45.5418 33.4346V27.5424C44.3161 27.645 42.9856 27.7845 41.55 27.9606C40.4507 28.07 39.3633 28.2769 38.3006 28.5788C37.505 28.794 36.7844 29.2251 36.2186 29.8244C35.7163 30.4252 35.4587 31.1931 35.497 31.9753C35.485 32.4594 35.536 32.943 35.6487 33.4139C35.7893 33.8346 36.0536 34.203 36.407 34.471C36.809 34.8126 37.279 35.0649 37.7858 35.211C38.6145 35.3995 39.4646 35.4768 40.3137 35.4408C41.2596 35.4314 42.1952 35.2435 43.0714 34.887C43.9697 34.5433 44.8046 34.0525 45.5418 33.4346Z" fill="#BE1622"/>
<path d="M86.7006 40.8487H77.5773V37.9026C76.2434 39.0286 74.7678 39.975 73.1881 40.7177C71.6967 41.3485 70.0891 41.6578 68.4702 41.6255C66.8723 41.6731 65.2864 41.3354 63.8465 40.6411C62.4066 39.9467 61.1549 38.916 60.1972 37.6361C57.9799 34.5018 56.8866 30.7102 57.0948 26.8766C57.0566 24.6968 57.4116 22.5281 58.1427 20.4742C58.7813 18.7116 59.7526 17.0881 61.0038 15.692C62.1607 14.4184 63.5818 13.4129 65.1679 12.7459C66.7102 12.0667 68.3752 11.7101 70.0604 11.698C71.4706 11.6588 72.8781 11.8418 74.2314 12.2403C75.3752 12.6255 76.4922 13.0861 77.575 13.6192V1.5498H86.7006V40.8487ZM77.5819 33.0354V19.1046C76.9355 18.8314 76.259 18.6355 75.5666 18.5209C74.923 18.4077 74.2712 18.3486 73.6178 18.3439C72.6101 18.2711 71.5993 18.4359 70.6669 18.825C69.7345 19.2142 68.9065 19.8169 68.2496 20.5845C66.9638 22.3886 66.333 24.5777 66.4617 26.7893C66.2907 28.9118 66.7941 31.0342 67.9003 32.8538C68.4609 33.515 69.1725 34.0314 69.9749 34.3594C70.7773 34.6874 71.6469 34.8173 72.5101 34.7382C73.4018 34.7284 74.2859 34.5732 75.1276 34.2786C76.0012 33.9907 76.8269 33.574 77.5773 33.0423L77.5819 33.0354Z" fill="#BE1622"/>
<path d="M108.496 37.847C108.009 38.2193 107.403 38.6651 106.678 39.1845C106.035 39.6588 105.351 40.0734 104.633 40.4231C103.743 40.8254 102.811 41.1261 101.854 41.3194C100.814 41.521 99.7565 41.618 98.697 41.6089C96.2027 41.6838 93.7767 40.7883 91.9292 39.1109C91.0386 38.3075 90.3333 37.32 89.8623 36.2168C89.3913 35.1137 89.1658 33.9213 89.2014 32.7224C89.1209 30.9279 89.6029 29.1531 90.5802 27.646C91.5838 26.2691 92.9463 25.1943 94.5191 24.539C96.5183 23.702 98.6285 23.1601 100.784 22.9304C103.275 22.6102 105.859 22.375 108.537 22.2249V22.0709C108.591 21.3975 108.436 20.7239 108.092 20.1423C107.749 19.5606 107.234 19.0993 106.618 18.8215C104.816 18.1292 102.889 17.823 100.961 17.9229C99.3288 17.9455 97.7099 18.2167 96.1599 18.7272C94.4578 19.2589 93.2368 19.6671 92.4968 19.9521H91.6741V13.097C92.6332 12.8427 94.1951 12.5447 96.3598 12.2031C98.5089 11.8579 100.682 11.6842 102.859 11.6837C106.743 11.3809 110.633 12.2069 114.059 14.0622C115.225 14.9135 116.153 16.0487 116.757 17.3599C117.36 18.6711 117.618 20.1148 117.506 21.5538V40.8575H108.496V37.847ZM108.496 33.4348V27.5426C107.27 27.6452 105.94 27.7846 104.506 27.9608C103.407 28.0702 102.32 28.2771 101.257 28.579C100.46 28.7936 99.7376 29.2247 99.1704 29.8245C98.6713 30.427 98.4148 31.194 98.4511 31.9755C98.4396 32.4597 98.4914 32.9433 98.605 33.4141C98.7424 33.8352 99.0054 34.2041 99.3588 34.4712C99.7613 34.8119 100.231 35.0641 100.738 35.2111C101.567 35.3983 102.416 35.4756 103.265 35.441C104.211 35.4321 105.147 35.2441 106.023 34.8871C106.922 34.5437 107.758 34.0528 108.496 33.4348Z" fill="#BE1622"/>
<path d="M141.327 21.1591H140.52C139.912 20.9827 139.284 20.8808 138.652 20.8558C137.785 20.7869 137.082 20.7524 136.51 20.7524C135.363 20.7438 134.218 20.8315 133.086 21.0144C131.996 21.2109 130.925 21.5008 129.885 21.8807V40.8741H120.768V12.4955H129.885V16.6596C131.423 15.239 133.185 14.0827 135.101 13.2378C136.399 12.7107 137.782 12.4241 139.183 12.3921C139.504 12.3921 139.872 12.3921 140.265 12.4174C140.658 12.4426 141.023 12.4587 141.324 12.4932L141.327 21.1591Z" fill="#BE1622"/>
<path d="M160.975 37.8464C160.486 38.2187 159.879 38.6645 159.155 39.1839C158.512 39.6578 157.827 40.0724 157.109 40.4225C156.221 40.8246 155.29 41.1252 154.333 41.3188C153.289 41.5207 152.228 41.6177 151.164 41.6083C148.67 41.6826 146.244 40.7863 144.397 39.1081C143.506 38.3046 142.801 37.3171 142.33 36.2139C141.859 35.1108 141.633 33.9184 141.669 32.7195C141.591 30.9234 142.078 29.1482 143.062 27.6431C144.066 26.2675 145.429 25.1931 147 24.5361C148.999 23.699 151.108 23.1571 153.263 22.9275C155.755 22.6073 158.339 22.3721 161.014 22.222V22.068C161.068 21.3944 160.913 20.7204 160.569 20.1386C160.225 19.5569 159.709 19.0958 159.093 18.8186C157.292 18.1269 155.366 17.8208 153.44 17.92C151.808 17.9409 150.189 18.2098 148.639 18.7175C146.937 19.2491 145.717 19.6574 144.978 19.9423H144.144V13.0964C145.103 12.8421 146.665 12.5441 148.83 12.2025C150.978 11.8574 153.15 11.6837 155.326 11.6831C159.211 11.3817 163.101 12.2093 166.527 14.0662C167.693 14.9168 168.622 16.0519 169.226 17.3633C169.829 18.6747 170.087 20.1187 169.974 21.5579V40.8615H160.973L160.975 37.8464ZM160.975 33.4342V27.542C159.749 27.6446 158.419 27.784 156.983 27.9602C155.884 28.0697 154.796 28.2766 153.734 28.5784C152.937 28.7936 152.216 29.2247 151.649 29.8239C151.148 30.4252 150.891 31.1931 150.93 31.9749C150.917 32.459 150.968 32.9427 151.082 33.4135C151.221 33.8348 151.486 34.2036 151.84 34.4706C152.241 34.8133 152.712 35.0657 153.219 35.2106C154.048 35.3986 154.898 35.4759 155.747 35.4404C156.693 35.4311 157.628 35.2432 158.504 34.8865C159.403 34.5428 160.238 34.0519 160.975 33.4342Z" fill="#BE1622"/>
<path d="M203.129 26.2745C203.299 30.2448 201.981 34.1356 199.434 37.1856C198.31 38.5323 196.898 39.6101 195.303 40.3398C193.708 41.0696 191.97 41.4327 190.216 41.4026C188.811 41.4239 187.409 41.2538 186.05 40.897C184.855 40.561 183.711 40.068 182.646 39.4308L182.265 40.8464H173.532V1.5498H182.649V15.4415C183.967 14.3817 185.402 13.4758 186.925 12.7413C188.505 12.0253 190.224 11.6712 191.958 11.7049C193.549 11.6227 195.136 11.9333 196.579 12.6094C198.022 13.2855 199.276 14.3063 200.231 15.5817C202.328 18.7387 203.345 22.4906 203.129 26.2745ZM193.757 26.4675C193.875 24.4446 193.432 22.4285 192.475 20.642C191.959 19.9247 191.261 19.3576 190.454 18.9986C189.646 18.6396 188.757 18.5017 187.879 18.599C186.984 18.6048 186.095 18.7363 185.236 18.9897C184.325 19.2516 183.452 19.6293 182.637 20.1134V34.3361C183.241 34.557 183.865 34.7171 184.501 34.8141C185.203 34.9044 185.91 34.9466 186.617 34.9405C187.614 35.0183 188.616 34.868 189.546 34.5008C190.476 34.1337 191.311 33.5594 191.986 32.8217C193.295 30.9729 193.921 28.7269 193.757 26.4675Z" fill="#BE1622"/>
<path d="M23.9939 40.7191C22.8441 41.0109 21.6776 41.2327 20.5009 41.3833C19.0023 41.5599 17.4941 41.6413 15.9852 41.6269C12.8353 41.8674 9.69883 41.0135 7.10556 39.2093C6.03651 38.1371 5.22082 36.8393 4.71822 35.411C4.21562 33.9828 4.03885 32.4601 4.20083 30.9547V16.0404H0V9.10947H4.20083V0H14.4524V9.11866H23.9939V16.0496H14.4524V27.3721C14.4524 28.4935 14.4616 29.4702 14.48 30.3021C14.484 31.0706 14.6353 31.8312 14.9258 32.5427C15.1962 33.2141 15.6907 33.7711 16.3253 34.1191C17.2367 34.5616 18.2462 34.7633 19.2576 34.7051C19.963 34.676 20.6621 34.561 21.3397 34.3627C21.9597 34.2204 22.5623 34.0108 23.1367 33.7377H23.9847L23.9939 40.7191Z" fill="#BE1622"/>
<path d="M223.603 26.0642V27.9392H221.188V40.6665H218.887V27.9392H216.926V26.0642H218.887V23.5642C218.887 22.5225 219.18 21.7082 219.767 21.121C220.373 20.5339 221.216 20.2404 222.296 20.2404C222.712 20.2404 223.148 20.2877 223.603 20.3824V22.3142H223.347C223.139 22.2953 222.959 22.2858 222.807 22.2858C221.728 22.2858 221.188 22.7782 221.188 23.7631V26.0642H223.603ZM231.854 25.7517C234.051 25.7517 235.727 26.5188 236.882 28.0529C237.905 29.3786 238.416 31.1779 238.416 33.4506C238.416 35.9885 237.753 37.9203 236.427 39.246C235.291 40.4014 233.757 40.979 231.825 40.979C229.59 40.979 227.886 40.2309 226.712 38.7347C225.689 37.4279 225.177 35.6665 225.177 33.4506C225.177 30.8748 225.85 28.8957 227.195 27.5131C228.35 26.3388 229.903 25.7517 231.854 25.7517ZM231.854 27.8824C230.528 27.8824 229.486 28.3843 228.729 29.3881C227.971 30.3729 227.592 31.7271 227.592 33.4506C227.592 35.2498 228.018 36.6229 228.871 37.5699C229.609 38.4032 230.594 38.8199 231.825 38.8199C233.132 38.8199 234.145 38.3464 234.865 37.3995C235.604 36.4525 235.973 35.1362 235.973 33.4506C235.973 31.5945 235.556 30.1741 234.723 29.1892C234.003 28.318 233.047 27.8824 231.854 27.8824ZM241.623 26.0642H243.783V28.7347C244.635 26.7271 245.98 25.7233 247.817 25.7233C248.044 25.7233 248.319 25.7517 248.641 25.8085V28.1949C247.125 28.2138 246.084 28.4316 245.516 28.8483C244.474 29.6059 243.953 31.0169 243.953 33.0813V40.6665H241.623V26.0642ZM255.707 20.3256H258.008V28.0244C259.088 26.5093 260.603 25.7517 262.554 25.7517C264.618 25.7517 266.209 26.5093 267.326 28.0244C268.311 29.3502 268.804 31.1021 268.804 33.2801C268.804 35.7991 268.15 37.7593 266.843 39.1608C265.707 40.3729 264.239 40.979 262.44 40.979C260.414 40.979 258.87 40.212 257.809 38.6779V40.6665H255.707V20.3256ZM262.128 27.9108C260.878 27.9108 259.874 28.4222 259.116 29.4449C258.378 30.4487 258.008 31.7839 258.008 33.4506C258.008 35.193 258.434 36.5567 259.287 37.5415C260.025 38.3748 260.972 38.7915 262.128 38.7915C263.415 38.7915 264.438 38.3085 265.196 37.3426C265.972 36.3767 266.36 35.0794 266.36 33.4506C266.36 31.6703 265.925 30.2688 265.054 29.246C264.296 28.3559 263.321 27.9108 262.128 27.9108ZM283.147 40.6665H280.846V38.3654C279.805 40.1078 278.252 40.979 276.187 40.979C274.767 40.979 273.63 40.6286 272.778 39.9279C271.945 39.2082 271.528 38.2517 271.528 37.0585V26.0642H273.829V36.121C273.829 36.9733 274.104 37.6551 274.653 38.1665C275.202 38.6779 275.941 38.9335 276.869 38.9335C278.081 38.9335 279.047 38.4979 279.767 37.6267C280.486 36.7366 280.846 35.5434 280.846 34.0472V26.0642H283.147V40.6665ZM297.548 30.0699H294.991C294.915 28.6116 293.94 27.8824 292.065 27.8824C291.099 27.8824 290.332 28.0718 289.764 28.4506C289.215 28.8104 288.94 29.3029 288.94 29.9279C288.94 30.8748 289.84 31.5566 291.639 31.9733L293.883 32.4847C295.341 32.8256 296.393 33.3085 297.037 33.9335C297.68 34.5585 298.002 35.4108 298.002 36.4904C298.002 37.8729 297.463 38.9714 296.383 39.7858C295.304 40.5813 293.845 40.979 292.008 40.979C290.001 40.979 288.476 40.5055 287.434 39.5585C286.563 38.782 286.099 37.7498 286.042 36.462H288.684C288.836 37.1248 289.044 37.6078 289.309 37.9108C289.821 38.5169 290.777 38.8199 292.179 38.8199C293.22 38.8199 294.044 38.6305 294.65 38.2517C295.275 37.854 295.588 37.3332 295.588 36.6892C295.588 35.7233 294.84 35.0604 293.343 34.7006L291.156 34.1892C289.489 33.7915 288.324 33.318 287.662 32.7688C286.904 32.1438 286.525 31.2441 286.525 30.0699C286.525 28.7441 287.027 27.693 288.031 26.9165C289.054 26.14 290.417 25.7517 292.122 25.7517C293.902 25.7517 295.285 26.1968 296.27 27.0869C297.122 27.8635 297.548 28.8578 297.548 30.0699ZM303.321 26.0642V40.6665H301.02V26.0642H303.321ZM302.213 20.354C302.611 20.354 302.942 20.496 303.207 20.7801C303.491 21.0453 303.633 21.3672 303.633 21.746C303.633 22.1438 303.491 22.4847 303.207 22.7688C302.942 23.0339 302.611 23.1665 302.213 23.1665C301.834 23.1665 301.503 23.0339 301.219 22.7688C300.954 22.4847 300.821 22.1438 300.821 21.746C300.821 21.3672 300.954 21.0453 301.219 20.7801C301.503 20.496 301.834 20.354 302.213 20.354ZM307.32 26.0642H309.479V28.5358C310.654 26.6797 312.263 25.7517 314.309 25.7517C315.729 25.7517 316.856 26.1116 317.69 26.8313C318.523 27.532 318.94 28.479 318.94 29.6722V40.6665H316.638V30.6097C316.638 29.7385 316.364 29.0472 315.815 28.5358C315.284 28.0244 314.555 27.7688 313.627 27.7688C312.415 27.7688 311.449 28.2138 310.729 29.104C310.01 29.9941 309.65 31.1779 309.65 32.6551V40.6665H307.32V26.0642ZM335.158 34.0472H324.391C324.41 35.2972 324.675 36.2915 325.187 37.0301C326.001 38.2233 327.175 38.8199 328.709 38.8199C330.603 38.8199 331.882 37.9203 332.545 36.121H334.874C334.571 37.6551 333.87 38.8483 332.772 39.7006C331.673 40.5529 330.291 40.979 328.624 40.979C326.408 40.979 324.713 40.2214 323.539 38.7063C322.497 37.3805 321.976 35.6286 321.976 33.4506C321.976 30.9316 322.658 28.9714 324.022 27.5699C325.215 26.3578 326.759 25.7517 328.653 25.7517C330.035 25.7517 331.247 26.0832 332.289 26.746C333.35 27.4089 334.107 28.318 334.562 29.4733C334.959 30.4582 335.158 31.9544 335.158 33.962V34.0472ZM332.658 32.1438C332.658 30.8748 332.279 29.8521 331.522 29.0756C330.783 28.2801 329.827 27.8824 328.653 27.8824C327.459 27.8824 326.484 28.2707 325.726 29.0472C324.988 29.8048 324.571 30.837 324.476 32.1438H332.658ZM348.707 30.0699H346.15C346.074 28.6116 345.099 27.8824 343.224 27.8824C342.258 27.8824 341.491 28.0718 340.922 28.4506C340.373 28.8104 340.099 29.3029 340.099 29.9279C340.099 30.8748 340.998 31.5566 342.797 31.9733L345.042 32.4847C346.5 32.8256 347.551 33.3085 348.195 33.9335C348.839 34.5585 349.161 35.4108 349.161 36.4904C349.161 37.8729 348.621 38.9714 347.542 39.7858C346.462 40.5813 345.004 40.979 343.167 40.979C341.159 40.979 339.635 40.5055 338.593 39.5585C337.722 38.782 337.258 37.7498 337.201 36.462H339.843C339.994 37.1248 340.203 37.6078 340.468 37.9108C340.979 38.5169 341.936 38.8199 343.337 38.8199C344.379 38.8199 345.203 38.6305 345.809 38.2517C346.434 37.854 346.746 37.3332 346.746 36.6892C346.746 35.7233 345.998 35.0604 344.502 34.7006L342.314 34.1892C340.648 33.7915 339.483 33.318 338.82 32.7688C338.063 32.1438 337.684 31.2441 337.684 30.0699C337.684 28.7441 338.186 27.693 339.189 26.9165C340.212 26.14 341.576 25.7517 343.28 25.7517C345.061 25.7517 346.443 26.1968 347.428 27.0869C348.28 27.8635 348.707 28.8578 348.707 30.0699ZM362.661 30.0699H360.105C360.029 28.6116 359.053 27.8824 357.178 27.8824C356.213 27.8824 355.445 28.0718 354.877 28.4506C354.328 28.8104 354.053 29.3029 354.053 29.9279C354.053 30.8748 354.953 31.5566 356.752 31.9733L358.997 32.4847C360.455 32.8256 361.506 33.3085 362.15 33.9335C362.794 34.5585 363.116 35.4108 363.116 36.4904C363.116 37.8729 362.576 38.9714 361.497 39.7858C360.417 40.5813 358.959 40.979 357.122 40.979C355.114 40.979 353.589 40.5055 352.548 39.5585C351.677 38.782 351.213 37.7498 351.156 36.462H353.798C353.949 37.1248 354.158 37.6078 354.423 37.9108C354.934 38.5169 355.891 38.8199 357.292 38.8199C358.334 38.8199 359.158 38.6305 359.764 38.2517C360.389 37.854 360.701 37.3332 360.701 36.6892C360.701 35.7233 359.953 35.0604 358.457 34.7006L356.269 34.1892C354.603 33.7915 353.438 33.318 352.775 32.7688C352.017 32.1438 351.639 31.2441 351.639 30.0699C351.639 28.7441 352.141 27.693 353.144 26.9165C354.167 26.14 355.531 25.7517 357.235 25.7517C359.016 25.7517 360.398 26.1968 361.383 27.0869C362.235 27.8635 362.661 28.8578 362.661 30.0699Z" fill="white"/>
</svg>
